<svg id="Layer_1" data-name="Layer 1" xmlns="http://www.w3.org/2000/svg" viewBox="0 0 300 300"><defs><style>.cls-1{fill:#3fa9f5;}.cls-2{fill:#fff;}</style></defs><title>battery</title><g id="Battery"><rect class="cls-1" x="60.03" y="86.2" width="15.56" height="27.89" rx="4.06"/><rect class="cls-1" x="226.65" y="86.2" width="15.56" height="27.89" rx="4.06"/><rect class="cls-1" x="45.45" y="227.1" width="211.35" height="7.93"/><rect class="cls-1" x="39.74" y="100.25" width="222.75" height="15.73"/><path class="cls-1" d="M205.49,80.73l2,19.52H194.67l.68-19.52A3.39,3.39,0,0,0,192,77.35H110.28a3.39,3.39,0,0,0-3.38,3.38l.68,19.52H94.74l2-19.52a13.52,13.52,0,0,1,13.52-13.52H192A13.52,13.52,0,0,1,205.49,80.73Z"/><path class="cls-1" d="M39.75,124.45v96.7H262.5v-96.7Zm162.1,82.65H100.4V143.69H201.85Z"/><path class="cls-1" d="M159.22,188.2v-2.29l-5,8.6,5,8.72,0-2.54h8.08a4.33,4.33,0,0,0,3.8-2.17L178.9,185a6.35,6.35,0,0,1-5.54,3.17Z"/><path class="cls-1" d="M163.61,154.9a4.95,4.95,0,0,0-8.61,0s-1.44,2.5-2.9,5l3.8,6.59L154,167.7l9.85,0,5-8.7-2.14,1.28Z"/><path class="cls-1" d="M177.69,184.43a4.93,4.93,0,0,0,0-5s-3-5.19-6.1-10.57l-10.81,6.24,6.8,11.79h5.81A5,5,0,0,0,177.69,184.43Z"/><path class="cls-1" d="M138.8,180.28l2,1.15-4.95-8.63H125.77l2.21,1.25-4,7a4.34,4.34,0,0,0,0,4.38l7.79,13.49a6.33,6.33,0,0,1,0-6.38Z"/><path class="cls-1" d="M132.83,198.17a5,5,0,0,0,4.33,2.47h12.2V188.15H135.75l-2.9,5A5,5,0,0,0,132.83,198.17Z"/><path class="cls-1" d="M133,165.43l10.86,6.27s8.57-14.86,10.06-17.42a6.2,6.2,0,0,1,5.43-3.15H143.74a4.46,4.46,0,0,0-3.78,2.21C138.59,155.57,133,165.43,133,165.43Z"/></g><g id="Battery-2" data-name="Battery"><rect class="cls-2" x="57.78" y="83.95" width="15.56" height="27.89" rx="4.06"/><rect class="cls-2" x="224.41" y="83.95" width="15.56" height="27.89" rx="4.06"/><rect class="cls-2" x="43.2" y="224.86" width="211.35" height="7.93"/><rect class="cls-2" x="37.5" y="98" width="222.75" height="15.73"/><path class="cls-2" d="M203.24,78.49l2,19.51H192.43l.67-19.51a3.38,3.38,0,0,0-3.38-3.38H108a3.38,3.38,0,0,0-3.38,3.38L105.34,98H92.49l2-19.51A13.52,13.52,0,0,1,108,65h81.68A13.52,13.52,0,0,1,203.24,78.49Z"/><path class="cls-2" d="M37.5,122.21v96.7H260.26v-96.7Zm162.1,82.65H98.16V141.44H199.6Z"/><path class="cls-2" d="M157,186v-2.29l-5,8.6,5,8.72,0-2.53h8.07a4.35,4.35,0,0,0,3.81-2.18l7.79-13.49a6.32,6.32,0,0,1-5.54,3.17Z"/><path class="cls-2" d="M161.36,152.66a4.94,4.94,0,0,0-8.6,0s-1.45,2.5-2.9,5l3.8,6.59-1.92,1.15,9.85,0,5-8.7-2.13,1.28S162,153.75,161.36,152.66Z"/><path class="cls-2" d="M175.45,182.19a5,5,0,0,0,0-5l-6.1-10.57-10.82,6.25,6.8,11.78h5.81A5,5,0,0,0,175.45,182.19Z"/><path class="cls-2" d="M136.56,178l2,1.14-5-8.63H123.52l2.21,1.25-4,7a4.32,4.32,0,0,0,0,4.38l7.79,13.49a6.33,6.33,0,0,1,0-6.39Z"/><path class="cls-2" d="M130.59,195.92a5,5,0,0,0,4.32,2.48h12.21V185.91H133.51c-1.46,2.53-2.9,5-2.91,5A5,5,0,0,0,130.59,195.92Z"/><path class="cls-2" d="M130.73,163.19l10.86,6.27s8.57-14.86,10.06-17.42a6.21,6.21,0,0,1,5.43-3.16H141.5a4.49,4.49,0,0,0-3.79,2.21C136.34,153.33,130.73,163.19,130.73,163.19Z"/></g></svg>