<svg id="Layer_1" data-name="Layer 1" xmlns="http://www.w3.org/2000/svg" viewBox="0 0 300 300"><defs><style>.cls-1{fill:#3fa9f5;}.cls-2{fill:#fff;}</style></defs><title>brakes</title><path class="cls-1" d="M161.73,51.23A95.83,95.83,0,0,0,106.6,68.6V92.9A43.41,43.41,0,0,1,103,108.83a3.24,3.24,0,0,1,.12,1.21,3,3,0,0,1-1.92,2.5,28.63,28.63,0,0,1-1.76,2.84s-.22.31-.58.89a3.11,3.11,0,0,1,2-.67,3.06,3.06,0,1,1-3.23,2.88c0-.1.06-.18.07-.28-.41.76-.88,1.64-1.37,2.67a59.57,59.57,0,0,0-5.86,25.46,57.77,57.77,0,0,0,2.1,15.33,2.94,2.94,0,0,1,1.23.85,3,3,0,0,1,.16,3.55c.44,1.22.88,2.38,1.33,3.43a3,3,0,0,1,.84-1.48,3.08,3.08,0,0,1,4.32.24A3,3,0,0,1,97,173.07a36.41,36.41,0,0,0,2.46,4.24,43.88,43.88,0,0,1,7.19,22.46v6.33h.16a3.07,3.07,0,0,1,2.33,3.63,3,3,0,0,1-2.49,2.35v14.3A96.26,96.26,0,1,0,161.73,51.23Zm-63,76.3a3.06,3.06,0,1,1,3.06,3.05A3.06,3.06,0,0,1,98.74,127.53ZM107.39,178a3.05,3.05,0,1,1,0-4.33A3.05,3.05,0,0,1,107.39,178ZM208.93,82.58a3,3,0,1,1-3.49,2.54A3.06,3.06,0,0,1,208.93,82.58Zm-9.11.15a3.05,3.05,0,1,1-3.34,2.7A3.06,3.06,0,0,1,199.82,82.73Zm-9.08.63a3,3,0,0,1,2.89,3.2,3,3,0,1,1-2.89-3.2Zm-9,1.09a3.06,3.06,0,1,1-3,3.06A3.06,3.06,0,0,1,181.7,84.45ZM162.86,56.16a3.06,3.06,0,1,1-1.13,4.18A3.08,3.08,0,0,1,162.86,56.16Zm-7,5.85a3.06,3.06,0,1,1,3.32,5.13A3.06,3.06,0,0,1,155.88,62Zm-6.65,6.22a3,3,0,1,1-.69,4.27A3,3,0,0,1,149.23,68.23Zm-6.34,6.54a3.06,3.06,0,0,1,3.86,4.76,3.06,3.06,0,1,1-3.86-4.76Zm-6,6.86A3.05,3.05,0,0,1,141,86.18a3,3,0,0,1-4.3-.23A3.06,3.06,0,0,1,136.92,81.63ZM131.3,88.8a3.06,3.06,0,0,1,4.33,4.33,3.06,3.06,0,1,1-4.33-4.33ZM114.56,212.42a3.06,3.06,0,0,1,1-6,3.08,3.08,0,0,1,2.54,3.51A3.11,3.11,0,0,1,114.56,212.42Zm9.11-.18A3,3,0,0,1,121,208.9a3.06,3.06,0,1,1,6.08.64A3,3,0,0,1,123.67,212.24Zm9.1-.63a3,3,0,1,1,3.2-2.88A3,3,0,0,1,132.77,211.61Zm9-1.1a3.05,3.05,0,1,1,3.06-3A3,3,0,0,1,141.79,210.51Zm18.88,28.3a3.06,3.06,0,0,1-4.18-1.12,3,3,0,1,1,4.18,1.12Zm7-5.85a3.06,3.06,0,1,1-3.34-5.13,3.06,3.06,0,0,1,3.34,5.13Zm6.65-6.19a3,3,0,0,1-4.26-.7,3.06,3.06,0,1,1,4.26.7Zm6.34-6.57a3.05,3.05,0,1,1,.44-4.3A3.05,3.05,0,0,1,180.63,220.2Zm6-6.86a3.06,3.06,0,1,1,.23-4.32A3.06,3.06,0,0,1,186.6,213.34Zm5.62-7.18a3.05,3.05,0,1,1,0-4.32A3.08,3.08,0,0,1,192.22,206.16Zm-30.49-6.57a51,51,0,1,1,50.94-50.94A50.94,50.94,0,0,1,161.73,199.59Zm52.7-114.33a3,3,0,1,1,2.34,3.6A3,3,0,0,1,214.43,85.26Zm1.67,36.1a3.08,3.08,0,0,1,0-4.32,3.06,3.06,0,0,1,4.33,4.32A3.07,3.07,0,0,1,216.1,121.36Zm2.57,46.08a3.06,3.06,0,1,1,6.11,0,3.06,3.06,0,0,1-6.11,0Zm4,11.93a3.06,3.06,0,1,1,3.23-2.88A3.06,3.06,0,0,1,222.67,179.37Zm3.86,6.19a3.06,3.06,0,1,1-6.08-.63,3.06,3.06,0,0,1,6.08.63Zm-1,27.29a3.06,3.06,0,1,1-5.9-1.59,3.08,3.08,0,0,1,3.74-2.16A3,3,0,0,1,225.55,212.85Zm.81-9.08a3.06,3.06,0,1,1-2.36-3.63A3.08,3.08,0,0,1,226.36,203.77Zm-3.17-6.57a3,3,0,1,1,3.49-2.53A3.05,3.05,0,0,1,223.19,197.2ZM227.37,127a3,3,0,0,1-4.09-4.52,3,3,0,1,1,4.09,4.52Zm-1.85-37.37a3,3,0,1,1,3.75-2.16A3,3,0,0,1,225.52,89.58ZM234,132.92a3.06,3.06,0,1,1,.46-4.29A3.1,3.1,0,0,1,234,132.92Zm6.3,6.31A3.06,3.06,0,1,1,241,135,3.05,3.05,0,0,1,240.33,139.23Zm6,6.6a3,3,0,1,1,.89-4.21A3,3,0,0,1,246.33,145.83Zm5.65,6.94a3.06,3.06,0,1,1,1.09-4.18A3.06,3.06,0,0,1,252,152.77Z"/><path class="cls-1" d="M99.64,59.89a7.29,7.29,0,0,0-7.26-7.26h-4a7.28,7.28,0,0,0-7.26,7.26S81,61,80.91,62.31s-2.59,3.09-5.53,3.92l-5.33,1.51c-6,1.12-9.95,4.8-11.56,9-6.24,16.2-12,38.19-12,69.61s5.74,53.42,12,69.61c1.61,4.19,5.09,7.33,11.56,9l5.33,1.5c2.94.84,5.42,2.59,5.53,3.93l.21,2.42A7.28,7.28,0,0,0,88.38,240h4a7.29,7.29,0,0,0,7.26-7.26v-13c0-.11,0-.23,0-.34s0-.38,0-.57V199.76a37.24,37.24,0,0,0-5.92-18.42A47.6,47.6,0,0,1,90,174.81a65.17,65.17,0,0,1,0-56.95,48.21,48.21,0,0,1,3.68-6.54A37.18,37.18,0,0,0,99.64,92.9V73.84c0-.2,0-.39,0-.58s0-.22,0-.33Zm-24.79,33a22.87,22.87,0,0,1-3,9.3,62.12,62.12,0,0,0-5.08,8.89,81,81,0,0,0,0,70.49,61,61,0,0,0,5.08,8.89,23,23,0,0,1,3,9.3v8.39a3.34,3.34,0,0,1-3.33,3.34,3.58,3.58,0,0,1-.92-.13,13.73,13.73,0,0,1-9.38-9c-5.47-17-8.14-35.31-8.14-56.09s2.67-39.13,8.15-56.11a13.5,13.5,0,0,1,9.29-8.9,3.58,3.58,0,0,1,1-.15,3.34,3.34,0,0,1,3.32,3.34ZM90.39,228.75a4.05,4.05,0,1,1-4,4.05A4.05,4.05,0,0,1,90.39,228.75Zm0-165.06a4.05,4.05,0,1,1,4.06-4A4,4,0,0,1,90.39,63.69Z"/><path class="cls-1" d="M161.72,106.63a42,42,0,1,0,42,42A42,42,0,0,0,161.72,106.63Zm0,6.92a5.65,5.65,0,1,1-5.64,5.64A5.64,5.64,0,0,1,161.72,113.55ZM132,144.92a5.65,5.65,0,1,1,7.11-3.63A5.65,5.65,0,0,1,132,144.92Zm17,30.87a5.65,5.65,0,1,1-1.25-7.88A5.64,5.64,0,0,1,149,175.79Zm12.74-12.15a15,15,0,1,1,15-15A15,15,0,0,1,161.72,163.64ZM182.35,177a5.64,5.64,0,1,1,1.25-7.88A5.63,5.63,0,0,1,182.35,177Zm9.13-32.12a5.65,5.65,0,1,1,3.62-7.12A5.65,5.65,0,0,1,191.48,144.92Z"/><path class="cls-2" d="M159.73,49.23A95.83,95.83,0,0,0,104.6,66.6V90.9A43.41,43.41,0,0,1,101,106.83a3.24,3.24,0,0,1,.12,1.21,3,3,0,0,1-1.92,2.5,28.63,28.63,0,0,1-1.76,2.84s-.22.31-.58.89a3.11,3.11,0,0,1,2-.67,3.06,3.06,0,1,1-3.23,2.88c0-.1.06-.18.07-.28-.41.76-.88,1.64-1.37,2.67a59.57,59.57,0,0,0-5.86,25.46,57.77,57.77,0,0,0,2.1,15.33,2.94,2.94,0,0,1,1.23.85,3,3,0,0,1,.16,3.55c.44,1.22.88,2.38,1.33,3.43a3,3,0,0,1,.84-1.48,3.08,3.08,0,0,1,4.32.24A3,3,0,0,1,95,171.07a36.41,36.41,0,0,0,2.46,4.24,43.88,43.88,0,0,1,7.19,22.46v6.33h.16a3.07,3.07,0,0,1,2.33,3.63,3,3,0,0,1-2.49,2.35v14.3A96.26,96.26,0,1,0,159.73,49.23Zm-63,76.3a3.06,3.06,0,1,1,3.06,3.05A3.06,3.06,0,0,1,96.74,125.53ZM105.39,176a3.05,3.05,0,1,1,0-4.33A3.05,3.05,0,0,1,105.39,176ZM206.93,80.58a3,3,0,1,1-3.49,2.54A3.06,3.06,0,0,1,206.93,80.58Zm-9.11.15a3.05,3.05,0,1,1-3.34,2.7A3.06,3.06,0,0,1,197.82,80.73Zm-9.08.63a3,3,0,0,1,2.89,3.2,3,3,0,1,1-2.89-3.2Zm-9,1.09a3.06,3.06,0,1,1-3,3.06A3.06,3.06,0,0,1,179.7,82.45ZM160.86,54.16a3.06,3.06,0,1,1-1.13,4.18A3.08,3.08,0,0,1,160.86,54.16Zm-7,5.85a3.06,3.06,0,1,1,3.32,5.13A3.06,3.06,0,0,1,153.88,60Zm-6.65,6.22a3,3,0,1,1-.69,4.27A3,3,0,0,1,147.23,66.23Zm-6.34,6.54a3.06,3.06,0,0,1,3.86,4.76,3.06,3.06,0,1,1-3.86-4.76Zm-6,6.86A3.05,3.05,0,0,1,139,84.18a3,3,0,0,1-4.3-.23A3.06,3.06,0,0,1,134.92,79.63ZM129.3,86.8a3.06,3.06,0,0,1,4.33,4.33,3.06,3.06,0,1,1-4.33-4.33ZM112.56,210.42a3.06,3.06,0,0,1,1-6,3.08,3.08,0,0,1,2.54,3.51A3.11,3.11,0,0,1,112.56,210.42Zm9.11-.18A3,3,0,0,1,119,206.9a3.06,3.06,0,1,1,6.08.64A3,3,0,0,1,121.67,210.24Zm9.1-.63a3,3,0,1,1,3.2-2.88A3,3,0,0,1,130.77,209.61Zm9-1.1a3.05,3.05,0,1,1,3.06-3A3,3,0,0,1,139.79,208.51Zm18.88,28.3a3.06,3.06,0,0,1-4.18-1.12,3,3,0,1,1,4.18,1.12Zm7-5.85a3.06,3.06,0,1,1-3.34-5.13,3.06,3.06,0,0,1,3.34,5.13Zm6.65-6.19a3,3,0,0,1-4.26-.7,3.06,3.06,0,1,1,4.26.7Zm6.34-6.57a3.05,3.05,0,1,1,.44-4.3A3.05,3.05,0,0,1,178.63,218.2Zm6-6.86a3.06,3.06,0,1,1,.23-4.32A3.06,3.06,0,0,1,184.6,211.34Zm5.62-7.18a3.05,3.05,0,1,1,0-4.32A3.08,3.08,0,0,1,190.22,204.16Zm-30.49-6.57a51,51,0,1,1,50.94-50.94A50.94,50.94,0,0,1,159.73,197.59Zm52.7-114.33a3,3,0,1,1,2.34,3.6A3,3,0,0,1,212.43,83.26Zm1.67,36.1a3.08,3.08,0,0,1,0-4.32,3.06,3.06,0,0,1,4.33,4.32A3.07,3.07,0,0,1,214.1,119.36Zm2.57,46.08a3.06,3.06,0,1,1,6.11,0,3.06,3.06,0,0,1-6.11,0Zm4,11.93a3.06,3.06,0,1,1,3.23-2.88A3.06,3.06,0,0,1,220.67,177.37Zm3.86,6.19a3.06,3.06,0,1,1-6.08-.63,3.06,3.06,0,0,1,6.08.63Zm-1,27.29a3.06,3.06,0,1,1-5.9-1.59,3.08,3.08,0,0,1,3.74-2.16A3,3,0,0,1,223.55,210.85Zm.81-9.08a3.06,3.06,0,1,1-2.36-3.63A3.08,3.08,0,0,1,224.36,201.77Zm-3.17-6.57a3,3,0,1,1,3.49-2.53A3.05,3.05,0,0,1,221.19,195.2ZM225.37,125a3,3,0,0,1-4.09-4.52,3,3,0,1,1,4.09,4.52Zm-1.85-37.37a3,3,0,1,1,3.75-2.16A3,3,0,0,1,223.52,87.58ZM232,130.92a3.06,3.06,0,1,1,.46-4.29A3.1,3.1,0,0,1,232,130.92Zm6.3,6.31A3.06,3.06,0,1,1,239,133,3.05,3.05,0,0,1,238.33,137.23Zm6,6.6a3,3,0,1,1,.89-4.21A3,3,0,0,1,244.33,143.83Zm5.65,6.94a3.06,3.06,0,1,1,1.09-4.18A3.06,3.06,0,0,1,250,150.77Z"/><path class="cls-2" d="M97.64,57.89a7.29,7.29,0,0,0-7.26-7.26h-4a7.28,7.28,0,0,0-7.26,7.26S79,59,78.91,60.31s-2.59,3.09-5.53,3.92l-5.33,1.51c-6,1.12-9.95,4.8-11.56,9-6.24,16.2-12,38.19-12,69.61s5.74,53.42,12,69.61c1.61,4.19,5.09,7.33,11.56,9l5.33,1.5c2.94.84,5.42,2.59,5.53,3.93l.21,2.42A7.28,7.28,0,0,0,86.38,238h4a7.29,7.29,0,0,0,7.26-7.26v-13c0-.11,0-.23,0-.34s0-.38,0-.57V197.76a37.24,37.24,0,0,0-5.92-18.42A47.6,47.6,0,0,1,88,172.81a65.17,65.17,0,0,1,0-56.95,48.21,48.21,0,0,1,3.68-6.54A37.18,37.18,0,0,0,97.64,90.9V71.84c0-.2,0-.39,0-.58s0-.22,0-.33Zm-24.79,33a22.87,22.87,0,0,1-3,9.3,62.12,62.12,0,0,0-5.08,8.89,81,81,0,0,0,0,70.49,61,61,0,0,0,5.08,8.89,23,23,0,0,1,3,9.3v8.39a3.34,3.34,0,0,1-3.33,3.34,3.58,3.58,0,0,1-.92-.13,13.73,13.73,0,0,1-9.38-9c-5.47-17-8.14-35.31-8.14-56.09s2.67-39.13,8.15-56.11a13.5,13.5,0,0,1,9.29-8.9,3.58,3.58,0,0,1,1-.15,3.34,3.34,0,0,1,3.32,3.34ZM88.39,226.75a4.05,4.05,0,1,1-4,4.05A4.05,4.05,0,0,1,88.39,226.75Zm0-165.06a4.05,4.05,0,1,1,4.06-4A4,4,0,0,1,88.39,61.69Z"/><path class="cls-2" d="M159.72,104.63a42,42,0,1,0,42,42A42,42,0,0,0,159.72,104.63Zm0,6.92a5.65,5.65,0,1,1-5.64,5.64A5.64,5.64,0,0,1,159.72,111.55ZM130,142.92a5.65,5.65,0,1,1,7.11-3.63A5.65,5.65,0,0,1,130,142.92Zm17,30.87a5.65,5.65,0,1,1-1.25-7.88A5.64,5.64,0,0,1,147,173.79Zm12.74-12.15a15,15,0,1,1,15-15A15,15,0,0,1,159.72,161.64ZM180.35,175a5.64,5.64,0,1,1,1.25-7.88A5.63,5.63,0,0,1,180.35,175Zm9.13-32.12a5.65,5.65,0,1,1,3.62-7.12A5.65,5.65,0,0,1,189.48,142.92Z"/></svg>