<svg id="Layer_1" data-name="Layer 1" xmlns="http://www.w3.org/2000/svg" viewBox="0 0 300 300"><defs><style>.cls-1{fill:#3fa9f5;}.cls-2{fill:#fff;}.cls-3{fill:none;}</style></defs><title>cool-heat</title><path class="cls-1" d="M265.27,196.56V107.44a11.17,11.17,0,0,0-.46-22.33H39.19a11.17,11.17,0,0,0-.46,22.33v89.12a11.17,11.17,0,0,0,.46,22.33H264.81a11.17,11.17,0,0,0,.46-22.33ZM56.67,121.71a7.62,7.62,0,0,1,7.62,7.61v67.19H49.06V129.32A7.61,7.61,0,0,1,56.67,121.71Zm20,7.61a7.61,7.61,0,0,1,15.22,0v67.19H76.69Zm27.62,0a7.62,7.62,0,0,1,15.23,0v67.19H104.31Zm27.63,0a7.61,7.61,0,1,1,15.22,0v67.19H131.94Zm27.62,0a7.61,7.61,0,0,1,7.61-7.61h0a7.62,7.62,0,0,1,7.62,7.61v67.19H159.56Zm27.63,0a7.61,7.61,0,1,1,15.22,0v67.19H187.19Zm27.62,0a7.62,7.62,0,0,1,15.23,0v67.19H214.81Zm27.63,0a7.61,7.61,0,0,1,15.22,0v67.19H242.44ZM35.57,96.3a3.63,3.63,0,0,1,3.62-3.62H264.81a3.62,3.62,0,1,1,0,7.24H39.19A3.63,3.63,0,0,1,35.57,96.3Zm229.24,115H39.19a3.62,3.62,0,0,1,0-7.24H264.81a3.62,3.62,0,1,1,0,7.24Z"/><path class="cls-2" d="M263.27,194.56V105.44a11.17,11.17,0,0,0-.46-22.33H37.19a11.17,11.17,0,0,0-.46,22.33v89.12a11.17,11.17,0,0,0,.46,22.33H262.81a11.17,11.17,0,0,0,.46-22.33ZM54.67,119.71a7.62,7.62,0,0,1,7.62,7.61v67.19H47.06V127.32A7.61,7.61,0,0,1,54.67,119.71Zm20,7.61a7.61,7.61,0,1,1,15.22,0v67.19H74.69Zm27.62,0a7.62,7.62,0,0,1,15.23,0v67.19H102.31Zm27.63,0a7.61,7.61,0,1,1,15.22,0v67.19H129.94Zm27.62,0a7.61,7.61,0,0,1,7.61-7.61h0a7.62,7.62,0,0,1,7.62,7.61v67.19H157.56Zm27.63,0a7.61,7.61,0,1,1,15.22,0v67.19H185.19Zm27.62,0a7.62,7.62,0,0,1,15.23,0v67.19H212.81Zm27.63,0a7.61,7.61,0,1,1,15.22,0v67.19H240.44ZM33.57,94.3a3.63,3.63,0,0,1,3.62-3.62H262.81a3.62,3.62,0,1,1,0,7.24H37.19A3.63,3.63,0,0,1,33.57,94.3Zm229.24,115H37.19a3.62,3.62,0,0,1,0-7.24H262.81a3.62,3.62,0,1,1,0,7.24Z"/><polyline class="cls-3" points="-272 950 -272 86 592 86"/><polyline class="cls-3" points="-272 950 -272 86 592 86"/></svg>