<svg id="Layer_1" data-name="Layer 1" xmlns="http://www.w3.org/2000/svg" viewBox="0 0 300 300"><defs><style>.cls-1{fill:#3fa9f5;}.cls-2{fill:#fff;}</style></defs><title>diagnostics</title><polygon class="cls-1" points="80.47 213.7 138.07 213.7 138.96 209.19 79.72 209.19 80.47 213.7"/><rect class="cls-1" x="98.66" y="238.46" width="2.54" height="11.28"/><rect class="cls-1" x="118.54" y="238.46" width="2.54" height="11.28"/><path class="cls-1" d="M142.6,152.64H74.32c-8,0-36.22,41.87-36.22,57.47v16c0,15.62,6.49,28.29,14.5,28.29H166c8,0,14.5-12.67,14.5-28.29V209.8C180.45,194.19,150.6,152.64,142.6,152.64ZM54.71,248.93a5.64,5.64,0,1,1,5.63-5.65A5.64,5.64,0,0,1,54.71,248.93Zm15.78-33.5L42.39,213l.88-9.49C45,193.86,61,198.2,61,198.2,70.81,201.26,70.49,215.43,70.49,215.43ZM136,243.28v1.62a4.85,4.85,0,0,1-4.83,4.84H88.52a4.84,4.84,0,0,1-4.83-4.84v-1.62c0-2.66,0-4.82,2.66-4.82h47.5C136.52,238.46,136,240.62,136,243.28Zm-5.8-22.53H88c-10.14-.82-7.89-17.22-7.89-17.22h58S140.36,219.93,130.22,220.75Zm34.58,28.18a5.64,5.64,0,1,1,5.63-5.65A5.64,5.64,0,0,1,164.8,248.93Zm10.47-45.4.89,9.49-28.11,2.41s-.31-14.17,9.51-17.23C157.56,198.2,173.5,193.86,175.27,203.53ZM108.6,180.81H55.06s6.33-20.05,18.25-25.37l35.29-.72,35.29.72c11.92,5.32,18.24,25.37,18.24,25.37Z"/><path class="cls-1" d="M171.61,178.89l-.79,3.41,4.5,8.29c11.71,0,11.35-4.14,11.35-4.14C183.05,176.87,171.61,178.89,171.61,178.89Z"/><path class="cls-1" d="M32,186.45s-.34,4.1,11.34,4.14l4.5-8.29-.79-3.41S35.62,176.87,32,186.45Z"/><path class="cls-1" d="M166.82,255H163v10.24a4.83,4.83,0,0,0,4.83,4.83h9.35a4.82,4.82,0,0,0,4.82-4.83V240.13a4.87,4.87,0,0,0-1.54-3.52C178.36,247.36,173.05,255,166.82,255Z"/><path class="cls-1" d="M38.26,236.61a4.8,4.8,0,0,0-1.55,3.52v25.13a4.84,4.84,0,0,0,4.84,4.83h9.33a4.84,4.84,0,0,0,4.84-4.83V255H51.85C45.62,255,40.31,247.36,38.26,236.61Z"/><path class="cls-1" d="M267,33.91H126.08c-2.76,0-5,3.08-5,6.88v79.59c0,3.78,2.24,6.85,5,6.85H267c2.75,0,5-3.07,5-6.85V40.79C272,37,269.76,33.91,267,33.91Zm-5.7,80.81c0,3.26-1.93,5.89-4.29,5.89h-121c-2.36,0-4.29-2.63-4.29-5.89V46.41c0-3.24,1.93-5.88,4.29-5.88H257c2.36,0,4.29,2.64,4.29,5.88Z"/><path class="cls-1" d="M217.53,137.24H175.89a5.53,5.53,0,0,0,0,11h41.64a5.53,5.53,0,0,0,0-11Z"/><path class="cls-1" d="M207.06,128.93H185.89a2.76,2.76,0,1,0,0,5.52h21.17a2.76,2.76,0,1,0,0-5.52Z"/><polygon class="cls-1" points="243.06 76.77 237.69 88.31 233.95 88.31 226.1 52.35 215.92 88.31 213.51 88.31 206.73 72.59 201.89 88.31 196.57 88.31 185.25 62 180.85 74.44 175.74 40.28 167.43 78.46 164.09 73.32 157.72 88.31 155.38 88.31 149.13 71.61 142.87 88.31 133.73 88.31 133.73 93.07 146.16 93.07 149.13 85.13 152.1 93.07 160.86 93.07 164.96 83.41 169.64 90.59 174.87 66.56 178.99 94 185.68 75.03 193.45 93.07 205.39 93.07 207.47 86.3 210.4 93.07 219.51 93.07 225.51 71.89 230.13 93.07 240.71 93.07 243.66 86.73 247.58 93.07 259.06 93.07 259.06 88.31 250.23 88.31 243.06 76.77"/><polygon class="cls-1" points="239.38 200.74 181.95 200.74 181.95 206.29 244.92 206.29 244.92 131.69 239.38 131.69 239.38 200.74"/><polygon class="cls-2" points="78.47 211.7 136.07 211.7 136.96 207.19 77.72 207.19 78.47 211.7"/><rect class="cls-2" x="96.66" y="236.46" width="2.54" height="11.28"/><rect class="cls-2" x="116.54" y="236.46" width="2.54" height="11.28"/><path class="cls-2" d="M140.6,150.64H72.32c-8,0-36.22,41.87-36.22,57.47v16c0,15.62,6.49,28.29,14.5,28.29H164c8,0,14.5-12.67,14.5-28.29V207.8C178.45,192.19,148.6,150.64,140.6,150.64ZM52.71,246.93a5.64,5.64,0,1,1,5.63-5.65A5.64,5.64,0,0,1,52.71,246.93Zm15.78-33.5L40.39,211l.88-9.49C43,191.86,59,196.2,59,196.2,68.81,199.26,68.49,213.43,68.49,213.43ZM134,241.28v1.62a4.85,4.85,0,0,1-4.83,4.84H86.52a4.84,4.84,0,0,1-4.83-4.84v-1.62c0-2.66,0-4.82,2.66-4.82h47.5C134.52,236.46,134,238.62,134,241.28Zm-5.8-22.53H86c-10.14-.82-7.89-17.22-7.89-17.22h58S138.36,217.93,128.22,218.75Zm34.58,28.18a5.64,5.64,0,1,1,5.63-5.65A5.64,5.64,0,0,1,162.8,246.93Zm10.47-45.4.89,9.49-28.11,2.41s-.31-14.17,9.51-17.23C155.56,196.2,171.5,191.86,173.27,201.53ZM106.6,178.81H53.06s6.33-20.05,18.25-25.37l35.29-.72,35.29.72c11.92,5.32,18.24,25.37,18.24,25.37Z"/><path class="cls-2" d="M169.61,176.89l-.79,3.41,4.5,8.29c11.71,0,11.35-4.14,11.35-4.14C181.05,174.87,169.61,176.89,169.61,176.89Z"/><path class="cls-2" d="M30,184.45s-.34,4.1,11.34,4.14l4.5-8.29-.79-3.41S33.62,174.87,30,184.45Z"/><path class="cls-2" d="M164.82,253H161v10.24a4.83,4.83,0,0,0,4.83,4.83h9.35a4.82,4.82,0,0,0,4.82-4.83V238.13a4.87,4.87,0,0,0-1.54-3.52C176.36,245.36,171.05,253,164.82,253Z"/><path class="cls-2" d="M36.26,234.61a4.8,4.8,0,0,0-1.55,3.52v25.13a4.84,4.84,0,0,0,4.84,4.83h9.33a4.84,4.84,0,0,0,4.84-4.83V253H49.85C43.62,253,38.31,245.36,36.26,234.61Z"/><path class="cls-2" d="M265,31.91H124.08c-2.76,0-5,3.08-5,6.88v79.59c0,3.78,2.24,6.85,5,6.85H265c2.75,0,5-3.07,5-6.85V38.79C270,35,267.76,31.91,265,31.91Zm-5.7,80.81c0,3.26-1.93,5.89-4.29,5.89h-121c-2.36,0-4.29-2.63-4.29-5.89V44.41c0-3.24,1.93-5.88,4.29-5.88H255c2.36,0,4.29,2.64,4.29,5.88Z"/><path class="cls-2" d="M215.53,135.24H173.89a5.53,5.53,0,0,0,0,11h41.64a5.53,5.53,0,0,0,0-11Z"/><path class="cls-2" d="M205.06,126.93H183.89a2.76,2.76,0,1,0,0,5.52h21.17a2.76,2.76,0,1,0,0-5.52Z"/><polygon class="cls-2" points="241.06 74.77 235.69 86.31 231.95 86.31 224.1 50.35 213.92 86.31 211.51 86.31 204.73 70.59 199.89 86.31 194.57 86.31 183.25 60 178.85 72.44 173.74 38.28 165.43 76.46 162.09 71.32 155.72 86.31 153.38 86.31 147.13 69.61 140.87 86.31 131.73 86.31 131.73 91.07 144.16 91.07 147.13 83.13 150.1 91.07 158.86 91.07 162.96 81.41 167.64 88.59 172.87 64.56 176.99 92 183.68 73.03 191.45 91.07 203.39 91.07 205.47 84.3 208.4 91.07 217.51 91.07 223.51 69.89 228.13 91.07 238.71 91.07 241.66 84.73 245.58 91.07 257.06 91.07 257.06 86.31 248.23 86.31 241.06 74.77"/><polygon class="cls-2" points="237.38 198.74 179.95 198.74 179.95 204.29 242.92 204.29 242.92 129.69 237.38 129.69 237.38 198.74"/></svg>