<svg id="Layer_1" data-name="Layer 1" xmlns="http://www.w3.org/2000/svg" viewBox="0 0 300 300"><defs><style>.cls-1{fill:#3fa9f5;}.cls-2{fill:#fff;}</style></defs><title>drivetrain</title><path class="cls-1" d="M206.35,112h12.29a9.36,9.36,0,0,0,9.36-9.35V57.15a9.36,9.36,0,0,0-9.36-9.36H206.35A9.36,9.36,0,0,0,197,57.15V74.89h-29.9a15.86,15.86,0,0,0-30.18,0H107V57.15a9.36,9.36,0,0,0-9.36-9.36H85.36A9.36,9.36,0,0,0,76,57.15v45.48A9.36,9.36,0,0,0,85.36,112H97.65a9.36,9.36,0,0,0,9.36-9.35V84.89h29.9A15.9,15.9,0,0,0,147,95V209a15.89,15.89,0,0,0-10.09,10.09H107V201.37A9.36,9.36,0,0,0,97.65,192H85.36A9.36,9.36,0,0,0,76,201.37v45.48a9.36,9.36,0,0,0,9.36,9.36H97.65a9.36,9.36,0,0,0,9.36-9.36V229.11h29.9a15.86,15.86,0,0,0,30.18,0H197v17.74a9.36,9.36,0,0,0,9.36,9.36h12.29a9.36,9.36,0,0,0,9.36-9.36V201.37a9.36,9.36,0,0,0-9.36-9.35H206.35a9.36,9.36,0,0,0-9.36,9.35v17.75h-29.9A15.89,15.89,0,0,0,157,209V95a15.9,15.9,0,0,0,10.09-10.08H197v17.74A9.36,9.36,0,0,0,206.35,112Z"/><path class="cls-2" d="M204.35,110h12.29a9.36,9.36,0,0,0,9.36-9.35V55.15a9.36,9.36,0,0,0-9.36-9.36H204.35A9.36,9.36,0,0,0,195,55.15V72.89h-29.9a15.86,15.86,0,0,0-30.18,0H105V55.15a9.36,9.36,0,0,0-9.36-9.36H83.36A9.36,9.36,0,0,0,74,55.15v45.48A9.36,9.36,0,0,0,83.36,110H95.65a9.36,9.36,0,0,0,9.36-9.35V82.89h29.9A15.9,15.9,0,0,0,145,93V207a15.89,15.89,0,0,0-10.09,10.09H105V199.37A9.36,9.36,0,0,0,95.65,190H83.36A9.36,9.36,0,0,0,74,199.37v45.48a9.36,9.36,0,0,0,9.36,9.36H95.65a9.36,9.36,0,0,0,9.36-9.36V227.11h29.9a15.86,15.86,0,0,0,30.18,0H195v17.74a9.36,9.36,0,0,0,9.36,9.36h12.29a9.36,9.36,0,0,0,9.36-9.36V199.37a9.36,9.36,0,0,0-9.36-9.35H204.35a9.36,9.36,0,0,0-9.36,9.35v17.75h-29.9A15.89,15.89,0,0,0,155,207V93a15.9,15.9,0,0,0,10.09-10.08H195v17.74A9.36,9.36,0,0,0,204.35,110Z"/></svg>