<svg id="Layer_1" data-name="Layer 1" xmlns="http://www.w3.org/2000/svg" viewBox="0 0 300 300"><defs><style>.cls-1{fill:#3fa9f5;}.cls-2{fill:#fff;}</style></defs><title>electrical</title><path class="cls-1" d="M49.09,103.12A8.58,8.58,0,0,1,46.53,100c-.86-1.93-1.44-3.85-4.62-3.47S32,96.15,31.33,99.81s-.61,6.45,4.46,7.22a85,85,0,0,0,10.81.78s3.58-1.93,3.54-2.61A6.8,6.8,0,0,0,49.09,103.12Z"/><path class="cls-1" d="M28.33,171.8s-.3,19.31,7.18,19.31,11.8.21,12,0,5.26.54,6-4.68a26.56,26.56,0,0,0,0-8.77s-8.28-2.46-10.07-2.85-8-2.19-8-2.19Z"/><path class="cls-1" d="M127.2,172.75c-3.26.09-6.94.13-11.22.11h-8.16c-26.33.13-31.89-1.79-34.34-5.89s2.29-4.09,2.29-4.09,30.91-.13,32.05,0H116c.45,0,5.37-.06,11.22-.06V146.76c-7.21.27-15.3.08-15.3.08s-18,.44-24.25-.89-17.57-15.47-9.94-15.58,34.19,0,34.19,0,7.28,0,15.3,0V114h25.63v-7.87h7.87v-3.37c-11.52-.57-34.32-1.6-48.8-1.6-19.74,0-56,2-56,2S66.11,87.88,68.26,84.57s3.84-4.18,8.39-5.29,35.25-1,35.25-1,30.71-.14,35.26,1,6.23,2,8.38,5.29c.85,1.3,2.94,4.45,5.16,7.79V82.74c-.7-.88-1.36-1.66-1.93-2.28-5-5.52-14.83-5.88-14.83-5.88l-32-.67-32,.67s-9.78.36-14.83,5.88S48.79,103,47.68,105.7A24.34,24.34,0,0,1,40,115.16c-3.62,2.53-11,5.68-12.14,18.77a255.4,255.4,0,0,0,0,35.34c.47,5.52,4.89,9.78,12.14,11.35s15.15.32,27.14,0,44.81-.47,44.81-.47,6.78,0,15.3.1Zm-67.95-2.83h0c-6.32,0-18.87-2-22.58-3.91a3,3,0,0,1-1.71-3.55c.36-1.44,1.49-2.57,2.58-2.57h.07c2.1.09,7.52,2,16.11,5.57L55,166a17.52,17.52,0,0,1,4.7,2.78A.66.66,0,0,1,59.25,169.92Zm4.82-30.18c-.81,1.17-2.73,1.38-4,1.57a33,33,0,0,1-5.07.23,56.67,56.67,0,0,1-8.81-.87c-9-1.59-9.73-7.55-10.33-11.42s3.68-7.94,7.84-6.35a50.21,50.21,0,0,1,8.84,4.9c1.8,1.14,3.65,2.26,5.41,3.48a35.56,35.56,0,0,1,3.69,2.89C63,135.42,65.49,137.68,64.07,139.74Z"/><rect class="cls-1" x="134.37" y="143.13" width="18.46" height="7.71"/><rect class="cls-1" x="134.37" y="121.16" width="18.46" height="7.71"/><rect class="cls-1" x="167.87" y="209.83" width="7.7" height="18.46"/><rect class="cls-1" x="134.37" y="165.11" width="18.46" height="7.71"/><rect class="cls-1" x="189.85" y="209.83" width="7.7" height="18.46"/><rect class="cls-1" x="134.37" y="187.08" width="18.46" height="7.71"/><rect class="cls-1" x="211.82" y="87.66" width="7.7" height="18.46"/><rect class="cls-1" x="211.82" y="209.83" width="7.7" height="18.46"/><rect class="cls-1" x="189.85" y="87.66" width="7.7" height="18.46"/><rect class="cls-1" x="167.87" y="87.66" width="7.7" height="18.46"/><rect class="cls-1" x="233.8" y="87.66" width="7.7" height="18.46"/><path class="cls-1" d="M160,202.65h89.36V113.29H160Zm59.55-60h5.76v24.77h8.83V142.69h5.75v30.53H219.56Zm-26,.14h19.61v19.52H199.36V173.1H193.6ZM169.47,167.5V142.68h17.9v5.76H175.23V167.5h12.14v5.76h-17.9Z"/><rect class="cls-1" x="256.54" y="165.11" width="18.46" height="7.71"/><rect class="cls-1" x="233.8" y="209.83" width="7.7" height="18.46"/><rect class="cls-1" x="256.54" y="121.16" width="18.46" height="7.71"/><rect class="cls-1" x="256.54" y="143.13" width="18.46" height="7.71"/><rect class="cls-1" x="256.54" y="187.08" width="18.46" height="7.71"/><rect class="cls-1" x="199.36" y="148.46" width="8.1" height="8.15"/><path class="cls-2" d="M46.9,100.93a8.56,8.56,0,0,1-2.56-3.12c-.87-1.92-1.44-3.85-4.62-3.46s-9.91-.4-10.59,3.26-.61,6.46,4.46,7.23a84.19,84.19,0,0,0,10.82.77s3.58-1.93,3.53-2.6A6.61,6.61,0,0,0,46.9,100.93Z"/><path class="cls-2" d="M26.13,169.6s-.29,19.31,7.19,19.31,11.79.22,12,0,5.26.54,6-4.67a26.31,26.31,0,0,0,0-8.78S43.1,173,41.3,172.62s-8-2.19-8-2.19Z"/><path class="cls-2" d="M125,170.56c-3.26.09-6.94.13-11.22.1h-8.16c-26.33.13-31.89-1.79-34.35-5.88s2.29-4.1,2.29-4.1,30.91-.12,32.06,0h8.16c.44-.05,5.36-.06,11.22-.05V144.57c-7.21.27-15.3.07-15.3.07s-18,.45-24.25-.89-17.58-15.46-9.94-15.57,34.19,0,34.19,0,7.27,0,15.3,0V111.79h25.63v-7.87h7.87v-3.36C147,100,124.19,99,109.71,99c-19.74,0-56,2-56,2S63.91,85.69,66.07,82.37s3.83-4.18,8.38-5.28,35.26-1,35.26-1,30.71-.15,35.26,1,6.23,2,8.38,5.28c.85,1.31,2.94,4.46,5.16,7.79V80.55c-.71-.88-1.36-1.66-1.93-2.29-5.05-5.52-14.83-5.88-14.83-5.88l-32-.67-32,.67s-9.78.36-14.83,5.88S46.59,100.82,45.49,103.5A24.43,24.43,0,0,1,37.76,113c-3.63,2.52-11,5.68-12.15,18.77a258.48,258.48,0,0,0,0,35.33c.48,5.52,4.89,9.78,12.15,11.36s15.14.31,27.13,0,44.82-.47,44.82-.47l15.3.09Zm-68-2.83h0c-6.32,0-18.87-2-22.57-3.91a3,3,0,0,1-1.71-3.56,3.12,3.12,0,0,1,2.57-2.56h.07c2.1.08,7.53,2,16.12,5.56l1.27.53a16.94,16.94,0,0,1,4.69,2.78A.66.66,0,0,1,57.05,167.73Zm4.82-30.18c-.8,1.17-2.72,1.38-4,1.56a31.83,31.83,0,0,1-5.07.23,56.66,56.66,0,0,1-8.82-.86c-9-1.59-9.73-7.55-10.32-11.42s3.67-8,7.84-6.36a50.91,50.91,0,0,1,8.84,4.91c1.8,1.14,3.64,2.25,5.41,3.47a34.24,34.24,0,0,1,3.68,2.9C60.78,133.22,63.29,135.49,61.87,137.55Z"/><rect class="cls-2" x="132.18" y="140.94" width="18.46" height="7.71"/><rect class="cls-2" x="132.18" y="118.96" width="18.46" height="7.71"/><rect class="cls-2" x="165.68" y="207.63" width="7.7" height="18.46"/><rect class="cls-2" x="132.18" y="162.91" width="18.46" height="7.71"/><rect class="cls-2" x="187.66" y="207.63" width="7.7" height="18.46"/><rect class="cls-2" x="132.18" y="184.89" width="18.46" height="7.71"/><rect class="cls-2" x="209.63" y="85.46" width="7.7" height="18.46"/><rect class="cls-2" x="209.63" y="207.63" width="7.7" height="18.46"/><rect class="cls-2" x="187.66" y="85.46" width="7.7" height="18.46"/><rect class="cls-2" x="165.68" y="85.46" width="7.7" height="18.46"/><rect class="cls-2" x="231.6" y="85.46" width="7.7" height="18.46"/><path class="cls-2" d="M157.81,200.46h89.36V111.1H157.81Zm59.56-60h5.76v24.77H232V140.5h5.76V171H217.37Zm-26,.14H211v19.52H197.16v10.74h-5.75Zm-24.13,24.67V140.49h17.89v5.76H173v19.06h12.13v5.76H167.28Z"/><rect class="cls-2" x="254.35" y="162.91" width="18.46" height="7.71"/><rect class="cls-2" x="231.6" y="207.63" width="7.7" height="18.46"/><rect class="cls-2" x="254.35" y="118.96" width="18.46" height="7.71"/><rect class="cls-2" x="254.35" y="140.94" width="18.46" height="7.71"/><rect class="cls-2" x="254.35" y="184.89" width="18.46" height="7.71"/><rect class="cls-2" x="197.16" y="146.26" width="8.1" height="8.15"/></svg>