<svg id="Layer_1" data-name="Layer 1" xmlns="http://www.w3.org/2000/svg" viewBox="0 0 300 300"><defs><style>.cls-1{fill:#3fa9f5;}.cls-2{fill:#fff;}</style></defs><title>emissions</title><path class="cls-1" d="M248.08,180.61v52H227.85c.91,0,1.76-1.2,2.51-3.27,1.59-4.45,2.65-13,2.65-22.76s-1.06-18.31-2.65-22.74c-.75-2.07-1.6-3.27-2.51-3.27Z"/><path class="cls-1" d="M222.7,206.62c0,14.37,2.31,26,5.15,26h-3.58c-3.35,0-6.08-11.66-6.08-26s2.73-26,6.08-26h3.58C225,180.61,222.7,192.25,222.7,206.62Z"/><path class="cls-1" d="M227.85,180.61h2.51v3.27C229.61,181.81,228.76,180.61,227.85,180.61Z"/><path class="cls-1" d="M230.36,232.65h-2.51c.91,0,1.76-1.2,2.51-3.27Z"/><polygon class="cls-1" points="260.46 226.67 248.02 232.64 248.02 180.61 260.46 186.58 260.46 226.67"/><rect class="cls-1" x="259.99" y="186.58" width="21.71" height="40.06"/><path class="cls-1" d="M180.31,217.9c-13.21,0-25-4.12-30.48-10.57-24.34-1.64-42.62-12.79-43-26.28a87.83,87.83,0,0,1-17.24,1.66c-27.6,0-49.23-11.83-49.23-26.93a16.44,16.44,0,0,1,2.28-8.25c-13.69-4-22.33-11.86-22.33-20.66,0-8.16,7.32-15.49,19.38-19.72a15.24,15.24,0,0,1-3.54-9.51c0-13.12,18.64-23.39,42.44-23.39a69.2,69.2,0,0,1,24.35,4.14c7.94-5.68,20.38-9,33.72-9,23.8,0,42.44,10.28,42.44,23.39a15.09,15.09,0,0,1-3,8.8c9.81,4.37,15.54,11,15.54,18.2A15.85,15.85,0,0,1,187,130.56c7.42,4.8,11.45,10.89,11.45,17.41,0,5-2.36,9.74-6.86,13.88,8.77,5,13.7,11.64,13.7,18.76a15.6,15.6,0,0,1-.83,5c6.19,3.48,9.69,8.26,9.69,13.36C214.12,209.6,199.27,217.9,180.31,217.9Zm-66.79-44-1,4.33a10.08,10.08,0,0,0-.3,2.38c0,10.83,17.2,20.24,39.15,21.42l1.28.07.75,1c4.06,5.61,14.89,9.38,26.94,9.38,17,0,28.43-7,28.43-13.52,0-3.53-3.23-7.05-8.88-9.67l-2.54-1.18,1.28-2.49a10.92,10.92,0,0,0,1.29-5c0-5.89-5.24-11.65-14.36-15.81l-4.27-1.94,3.83-2.7c3.63-2.56,7.95-6.75,7.95-12.19s-4.19-10.49-11.82-14.56l-3.6-1.92,3.19-2.55c2.49-2,5.44-5.19,5.44-9.2,0-5.66-5.82-11.11-15.57-14.58l-4.11-1.46,3.15-3c2.65-2.54,4-5.21,4-8,0-9.76-17-18-37.06-18-12.89,0-24.71,3.29-31.63,8.82l-1.24,1-1.47-.61a63.61,63.61,0,0,0-23.73-4.3c-20.09,0-37.06,8.24-37.06,18,0,3.8,2.65,6.85,4.88,8.75l3.9,3.32L45.35,111c-12,3.19-19.67,9.4-19.67,15.84,0,6.88,8.84,13.47,22,16.41l4.37,1-2.91,3.39a12.46,12.46,0,0,0-3.4,8.13c0,11.69,20.08,21.55,43.85,21.55A79.75,79.75,0,0,0,109.21,175Z"/><rect class="cls-1" x="114.12" y="115.09" width="6.71" height="35.55"/><rect class="cls-1" x="131.11" y="115.09" width="6.71" height="35.55"/><rect class="cls-1" x="123.56" y="137.86" width="6.71" height="18.86" transform="translate(-20.38 274.2) rotate(-90)"/><rect class="cls-1" x="123.64" y="108.98" width="6.7" height="18.87" transform="translate(8.58 245.4) rotate(-90)"/><rect class="cls-1" x="155.6" y="139.66" width="4.71" height="12.75"/><rect class="cls-1" x="147.17" y="151.08" width="4.71" height="12.75"/><rect class="cls-1" x="150.73" y="136.11" width="4.71" height="11.81" transform="translate(11.07 295.09) rotate(-90)"/><rect class="cls-1" x="151.29" y="155.84" width="4.71" height="12.95" transform="translate(-8.67 315.97) rotate(-90)"/><rect class="cls-1" x="151.41" y="145.82" width="4.71" height="13.18" transform="translate(1.35 306.17) rotate(-90)"/><rect class="cls-1" x="84.06" y="115.08" width="6.71" height="35.61"/><rect class="cls-1" x="91.13" y="108.01" width="6.71" height="20.84" transform="translate(212.91 23.95) rotate(90)"/><rect class="cls-1" x="91.13" y="136.92" width="6.71" height="20.84" transform="translate(241.82 52.86) rotate(90)"/><path class="cls-2" d="M246.08,178.61v52H225.85c.91,0,1.76-1.2,2.51-3.27,1.59-4.45,2.65-13,2.65-22.76s-1.06-18.31-2.65-22.74c-.75-2.07-1.6-3.27-2.51-3.27Z"/><path class="cls-2" d="M220.7,204.62c0,14.37,2.31,26,5.15,26h-3.58c-3.35,0-6.08-11.66-6.08-26s2.73-26,6.08-26h3.58C223,178.61,220.7,190.25,220.7,204.62Z"/><path class="cls-2" d="M225.85,178.61h2.51v3.27C227.61,179.81,226.76,178.61,225.85,178.61Z"/><path class="cls-2" d="M228.36,230.65h-2.51c.91,0,1.76-1.2,2.51-3.27Z"/><polygon class="cls-2" points="258.46 224.67 246.02 230.64 246.02 178.61 258.46 184.58 258.46 224.67"/><rect class="cls-2" x="257.99" y="184.58" width="21.71" height="40.06"/><path class="cls-2" d="M178.31,215.9c-13.21,0-25-4.12-30.48-10.57-24.34-1.64-42.62-12.79-43-26.28a87.83,87.83,0,0,1-17.24,1.66c-27.6,0-49.23-11.83-49.23-26.93a16.44,16.44,0,0,1,2.28-8.25c-13.69-4-22.33-11.86-22.33-20.66,0-8.16,7.32-15.49,19.38-19.72a15.24,15.24,0,0,1-3.54-9.51c0-13.12,18.64-23.39,42.44-23.39a69.2,69.2,0,0,1,24.35,4.14c7.94-5.68,20.38-9,33.72-9,23.8,0,42.44,10.28,42.44,23.39a15.09,15.09,0,0,1-3,8.8c9.81,4.37,15.54,11,15.54,18.2A15.85,15.85,0,0,1,185,128.56c7.42,4.8,11.45,10.89,11.45,17.41,0,5-2.36,9.74-6.86,13.88,8.77,5,13.7,11.64,13.7,18.76a15.6,15.6,0,0,1-.83,5c6.19,3.48,9.69,8.26,9.69,13.36C212.12,207.6,197.27,215.9,178.31,215.9Zm-66.79-44-1,4.33a10.08,10.08,0,0,0-.3,2.38c0,10.83,17.2,20.24,39.15,21.42l1.28.07.75,1c4.06,5.61,14.89,9.38,26.94,9.38,17,0,28.43-7,28.43-13.52,0-3.53-3.23-7.05-8.88-9.67l-2.54-1.18,1.28-2.49a10.92,10.92,0,0,0,1.29-5c0-5.89-5.24-11.65-14.36-15.81l-4.27-1.94,3.83-2.7c3.63-2.56,7.95-6.75,7.95-12.19s-4.19-10.49-11.82-14.56l-3.6-1.92,3.19-2.55c2.49-2,5.44-5.19,5.44-9.2,0-5.66-5.82-11.11-15.57-14.58l-4.11-1.46,3.15-3c2.65-2.54,4-5.21,4-8,0-9.76-17-18-37.06-18-12.89,0-24.71,3.29-31.63,8.82l-1.24,1-1.47-.61a63.61,63.61,0,0,0-23.73-4.3c-20.09,0-37.06,8.24-37.06,18,0,3.8,2.65,6.85,4.88,8.75l3.9,3.32L43.35,109c-12,3.19-19.67,9.4-19.67,15.84,0,6.88,8.84,13.47,22,16.41l4.37,1-2.91,3.39a12.46,12.46,0,0,0-3.4,8.13c0,11.69,20.08,21.55,43.85,21.55A79.75,79.75,0,0,0,107.21,173Z"/><rect class="cls-2" x="112.12" y="113.09" width="6.71" height="35.55"/><rect class="cls-2" x="129.11" y="113.09" width="6.71" height="35.55"/><rect class="cls-2" x="121.56" y="135.86" width="6.71" height="18.86" transform="translate(-20.38 270.2) rotate(-90)"/><rect class="cls-2" x="121.64" y="106.98" width="6.7" height="18.87" transform="translate(8.58 241.4) rotate(-90)"/><rect class="cls-2" x="153.6" y="137.66" width="4.71" height="12.75"/><rect class="cls-2" x="145.17" y="149.08" width="4.71" height="12.75"/><rect class="cls-2" x="148.73" y="134.11" width="4.71" height="11.81" transform="translate(11.07 291.09) rotate(-90)"/><rect class="cls-2" x="149.29" y="153.84" width="4.71" height="12.95" transform="translate(-8.67 311.97) rotate(-90)"/><rect class="cls-2" x="149.41" y="143.82" width="4.71" height="13.18" transform="translate(1.35 302.17) rotate(-90)"/><rect class="cls-2" x="82.06" y="113.08" width="6.71" height="35.61"/><rect class="cls-2" x="89.13" y="106.01" width="6.71" height="20.84" transform="translate(208.91 23.95) rotate(90)"/><rect class="cls-2" x="89.13" y="134.92" width="6.71" height="20.84" transform="translate(237.82 52.86) rotate(90)"/></svg>