<svg id="Layer_1" data-name="Layer 1" xmlns="http://www.w3.org/2000/svg" viewBox="0 0 300 300"><defs><style>.cls-1{fill:#3fa9f5;}.cls-2{fill:#fff;}</style></defs><title>engine</title><path class="cls-1" d="M40,153.14h7.67a0,0,0,0,1,0,0V181.4a0,0,0,0,1,0,0H40a9,9,0,0,1-9-9V162.15A9,9,0,0,1,40,153.14Z"/><path class="cls-1" d="M36.25,127.6H39.7a0,0,0,0,1,0,0v79.34a0,0,0,0,1,0,0H36.25a9,9,0,0,1-9-9V136.6A9,9,0,0,1,36.25,127.6Z"/><rect class="cls-1" x="240.25" y="142.9" width="19.08" height="48.74"/><path class="cls-1" d="M252.94,119.28H262a13,13,0,0,1,13,13V202.3a13,13,0,0,1-13,13h-9.09a0,0,0,0,1,0,0v-96A0,0,0,0,1,252.94,119.28Z"/><rect class="cls-1" x="110.3" y="90.25" width="66.43" height="7.97"/><path class="cls-1" d="M192.59,113.79H94.43V111a10,10,0,0,1,5.49-8.92l10.38-5.23h66.43l10.37,5.23a10,10,0,0,1,5.49,8.92Z"/><path class="cls-1" d="M100.22,68.79H186.8a5.79,5.79,0,0,1,5.79,5.79v5.36a5.79,5.79,0,0,1-5.79,5.79H100.22a5.78,5.78,0,0,1-5.78-5.78V74.57A5.79,5.79,0,0,1,100.22,68.79Z"/><rect class="cls-1" x="124.53" y="142.18" width="12.58" height="9.5"/><rect class="cls-1" x="146.29" y="142.18" width="12.57" height="9.5"/><rect class="cls-1" x="168.05" y="142.18" width="12.57" height="9.5"/><rect class="cls-1" x="189.81" y="142.18" width="12.57" height="9.5"/><path class="cls-1" d="M228.42,119.28H58.6a6,6,0,0,0-6,6v84a6,6,0,0,0,6,6h52l21.64,14.38a22.82,22.82,0,0,0,12.63,3.81H206.4a23.83,23.83,0,0,0,16.87-7l3.82-3.83a25.19,25.19,0,0,0,7.33-17.75v-79.6A6,6,0,0,0,228.42,119.28Zm-166.8,65H122.5V190H61.62ZM150,203.83H61.62v-5.74H150Zm29.85,12.66a4,4,0,0,1-4,4h-.55a4,4,0,0,1-4-4V179.68a4,4,0,0,1,4-4h.55a4,4,0,0,1,4,4Zm18.22,0a4,4,0,0,1-4,4h-.55a4,4,0,0,1-4-4V179.68a4,4,0,0,1,4-4H194a4,4,0,0,1,4,4Zm6.75-60h-82.7a4.4,4.4,0,0,1-4.41-4.4V141.79a4.4,4.4,0,0,1,4.41-4.4h82.7a4.4,4.4,0,0,1,4.4,4.4v10.27A4.4,4.4,0,0,1,204.81,156.46Zm11.48,60a4,4,0,0,1-4,4h-.56a4,4,0,0,1-4-4V179.68a4,4,0,0,1,4-4h.56a4,4,0,0,1,4,4Z"/><path class="cls-2" d="M37.78,150.89h7.67a0,0,0,0,1,0,0v28.26a0,0,0,0,1,0,0H37.77a9,9,0,0,1-9-9V159.9A9,9,0,0,1,37.78,150.89Z"/><path class="cls-2" d="M34,125.35h3.45a0,0,0,0,1,0,0V204.7a0,0,0,0,1,0,0H34a9,9,0,0,1-9-9V134.36A9,9,0,0,1,34,125.35Z"/><rect class="cls-2" x="238.01" y="140.65" width="19.08" height="48.74"/><path class="cls-2" d="M250.7,117h9.09a13,13,0,0,1,13,13v70.05a13,13,0,0,1-13,13H250.7a0,0,0,0,1,0,0V117A0,0,0,0,1,250.7,117Z"/><rect class="cls-2" x="108.05" y="88.01" width="66.43" height="7.97"/><path class="cls-2" d="M190.35,111.55H92.19v-2.78a10,10,0,0,1,5.49-8.92l10.37-5.23h66.43l10.38,5.23a10,10,0,0,1,5.49,8.92Z"/><path class="cls-2" d="M98,66.55h86.59a5.79,5.79,0,0,1,5.79,5.79v5.36a5.79,5.79,0,0,1-5.79,5.79H98a5.78,5.78,0,0,1-5.78-5.78V72.33A5.79,5.79,0,0,1,98,66.55Z"/><rect class="cls-2" x="122.28" y="139.93" width="12.58" height="9.5"/><rect class="cls-2" x="144.05" y="139.93" width="12.57" height="9.5"/><rect class="cls-2" x="165.81" y="139.93" width="12.57" height="9.5"/><rect class="cls-2" x="187.57" y="139.93" width="12.57" height="9.5"/><path class="cls-2" d="M226.18,117H56.36a6,6,0,0,0-6,6v84a6,6,0,0,0,6,6h52L130,227.4a22.88,22.88,0,0,0,12.63,3.81h61.57a23.81,23.81,0,0,0,16.86-7l3.82-3.84a25.11,25.11,0,0,0,7.33-17.75V123A6,6,0,0,0,226.18,117ZM59.38,182h60.88v5.74H59.38Zm88.37,19.55H59.38v-5.74h88.37Zm29.84,12.67a4,4,0,0,1-4,4H173a4,4,0,0,1-4-4V177.44a4,4,0,0,1,4-4h.55a4,4,0,0,1,4,4Zm18.23,0a4,4,0,0,1-4,4h-.55a4,4,0,0,1-4-4V177.44a4,4,0,0,1,4-4h.55a4,4,0,0,1,4,4Zm6.75-60H119.86a4.4,4.4,0,0,1-4.4-4.4V139.55a4.4,4.4,0,0,1,4.4-4.41h82.71a4.4,4.4,0,0,1,4.4,4.41v10.27A4.4,4.4,0,0,1,202.57,154.22Zm11.47,60a4,4,0,0,1-4,4h-.55a4,4,0,0,1-4-4V177.44a4,4,0,0,1,4-4H210a4,4,0,0,1,4,4Z"/></svg>