<svg id="Layer_1" data-name="Layer 1" xmlns="http://www.w3.org/2000/svg" viewBox="0 0 300 300"><defs><style>.cls-1{fill:#3fa9f5;}.cls-2{fill:#fff;}</style></defs><title>exhaust</title><path class="cls-1" d="M151,29.23c-20.58,0-37.27,12.77-37.27,28.52v91.42c0,14.7,14.57,26.83,33.26,28.35a35.35,35.35,0,0,0,10.1,16.69c11.42,10.39,23.73,20.5,12.11,32.95s-23.86,13.49-21.4,43l1.72,8.65c-3.49,1.16-5.8,3.13-5.83,5.35-.05,3.7,6.12,6.75,13.77,6.83s13.92-2.86,14-6.55c0-2.56-2.91-4.81-7.27-6-1.36-7.92-3.45-24.85,2.14-30.69,6.9-7.28,25.62-20.44,21.31-35.57,0,0-1.52-14.86-21.31-27.9,0,0-2.82-2.35-3.93-8,15-3.68,25.89-14.44,25.89-27.15V57.75C188.27,42,171.57,29.23,151,29.23Z"/><path class="cls-1" d="M151,11H132.2C131.45,24.07,143,25.93,143,25.93v5.25H159V25.93S170.53,24.07,169.8,11Z"/><path class="cls-2" d="M149,27.23c-20.58,0-37.27,12.77-37.27,28.52v91.42c0,14.7,14.57,26.83,33.26,28.35a35.35,35.35,0,0,0,10.1,16.69c11.42,10.39,23.73,20.5,12.11,32.95s-23.86,13.49-21.4,43l1.72,8.65c-3.49,1.16-5.8,3.13-5.83,5.35-.05,3.7,6.12,6.75,13.77,6.83s13.92-2.86,14-6.55c0-2.56-2.91-4.81-7.27-6-1.36-7.92-3.45-24.85,2.14-30.69,6.9-7.28,25.62-20.44,21.31-35.57,0,0-1.52-14.86-21.31-27.9,0,0-2.82-2.35-3.93-8,15-3.68,25.89-14.44,25.89-27.15V55.75C186.27,40,169.57,27.23,149,27.23Z"/><path class="cls-2" d="M149,9H130.2C129.45,22.07,141,23.93,141,23.93v5.25H157V23.93S168.53,22.07,167.8,9Z"/></svg>