<svg id="Layer_1" data-name="Layer 1" xmlns="http://www.w3.org/2000/svg" viewBox="0 0 300 300"><defs><style>.cls-1{fill:#3fa9f5;}.cls-2{fill:#fff;}</style></defs><title>inspections</title><rect class="cls-1" x="220.11" y="103.79" width="10.9" height="109.17" transform="translate(57.4 -59.99) rotate(17.33)"/><rect class="cls-1" x="239.15" y="92.75" width="10.9" height="10.36" transform="translate(40.25 -68.38) rotate(17.32)"/><polygon class="cls-1" points="205.35 223.18 203.01 212.36 213.42 215.61 205.35 223.18"/><rect class="cls-1" x="222.41" y="105.18" width="2.69" height="45.57" transform="translate(48.19 -60.77) rotate(17.31)"/><rect class="cls-1" x="232.14" y="104.48" width="4.08" height="10" transform="translate(408.46 -81.44) rotate(107.34)"/><path class="cls-1" d="M187.93,76.91v162H69.87v-162Zm7.85-7.84H62V246.7H195.78V69.07Z"/><rect class="cls-1" x="102.75" y="87.19" width="52.31" height="6.98"/><rect class="cls-1" x="89.38" y="101.01" width="79.04" height="6.98"/><rect class="cls-1" x="80.23" y="128.71" width="59.7" height="6.98"/><rect class="cls-1" x="80.23" y="156.15" width="38.1" height="6.98"/><rect class="cls-1" x="80.23" y="183.6" width="69.35" height="6.98"/><rect class="cls-1" x="80.23" y="211.04" width="27.68" height="6.98"/><path class="cls-1" d="M177.18,170.88H154.72V148.41h22.46Zm-20.33-2.14h18.2V150.55h-18.2Z"/><path class="cls-1" d="M177.18,225.76H154.72V203.3h22.46Zm-20.33-2.13h18.2v-18.2h-18.2Z"/><polygon class="cls-1" points="156.85 124.89 156.85 123.11 173.72 123.11 176.53 120.97 154.72 120.97 154.72 123.07 156.85 124.89"/><polygon class="cls-1" points="175.05 130.09 175.05 141.3 164.3 141.3 162.26 143.43 177.18 143.43 177.18 127.87 175.05 130.09"/><polygon class="cls-1" points="161.17 141.3 156.85 141.3 156.85 132.49 154.91 128.53 154.72 128.13 154.72 143.43 162.22 143.43 161.17 141.3"/><polygon class="cls-1" points="156.39 127.08 162.76 140.08 184.55 117.34 163.59 133.26 156.39 127.08"/><polygon class="cls-1" points="156.85 179.84 156.85 178.04 173.72 178.04 176.53 175.91 154.72 175.91 154.72 178.01 156.85 179.84"/><polygon class="cls-1" points="161.17 196.24 156.85 196.24 156.85 187.43 154.91 183.47 154.72 183.07 154.72 198.37 162.22 198.37 161.17 196.24"/><polygon class="cls-1" points="175.05 185.03 175.05 196.24 164.31 196.24 162.26 198.37 177.18 198.37 177.18 182.81 175.05 185.03"/><polygon class="cls-1" points="156.39 182.02 162.76 195.02 184.55 172.28 163.59 188.2 156.39 182.02"/><rect class="cls-1" x="93.97" y="62.82" width="69.87" height="6.33"/><rect class="cls-1" x="105.05" y="56.5" width="47.71" height="6.33"/><rect class="cls-2" x="218.11" y="101.79" width="10.9" height="109.17" transform="translate(56.71 -59.48) rotate(17.33)"/><rect class="cls-2" x="237.15" y="90.75" width="10.9" height="10.36" transform="translate(39.56 -67.88) rotate(17.32)"/><polygon class="cls-2" points="203.35 221.18 201.01 210.36 211.42 213.61 203.35 221.18"/><rect class="cls-2" x="220.41" y="103.18" width="2.69" height="45.57" transform="translate(47.51 -60.26) rotate(17.31)"/><rect class="cls-2" x="230.14" y="102.48" width="4.08" height="10" transform="translate(403.95 -82.13) rotate(107.34)"/><path class="cls-2" d="M185.93,74.91v162H67.87v-162Zm7.85-7.84H60V244.7H193.78V67.07Z"/><rect class="cls-2" x="100.75" y="85.19" width="52.31" height="6.98"/><rect class="cls-2" x="87.38" y="99.01" width="79.04" height="6.98"/><rect class="cls-2" x="78.23" y="126.71" width="59.7" height="6.98"/><rect class="cls-2" x="78.23" y="154.15" width="38.1" height="6.98"/><rect class="cls-2" x="78.23" y="181.6" width="69.35" height="6.98"/><rect class="cls-2" x="78.23" y="209.04" width="27.68" height="6.98"/><path class="cls-2" d="M175.18,168.88H152.72V146.41h22.46Zm-20.33-2.14h18.2V148.55h-18.2Z"/><path class="cls-2" d="M175.18,223.76H152.72V201.3h22.46Zm-20.33-2.13h18.2v-18.2h-18.2Z"/><polygon class="cls-2" points="154.85 122.89 154.85 121.11 171.72 121.11 174.53 118.97 152.72 118.97 152.72 121.07 154.85 122.89"/><polygon class="cls-2" points="173.05 128.09 173.05 139.3 162.3 139.3 160.26 141.43 175.18 141.43 175.18 125.87 173.05 128.09"/><polygon class="cls-2" points="159.17 139.3 154.85 139.3 154.85 130.49 152.91 126.53 152.72 126.13 152.72 141.43 160.22 141.43 159.17 139.3"/><polygon class="cls-2" points="154.39 125.08 160.76 138.08 182.55 115.34 161.59 131.26 154.39 125.08"/><polygon class="cls-2" points="154.85 177.84 154.85 176.04 171.72 176.04 174.53 173.91 152.72 173.91 152.72 176.01 154.85 177.84"/><polygon class="cls-2" points="159.17 194.24 154.85 194.24 154.85 185.43 152.91 181.47 152.72 181.07 152.72 196.37 160.22 196.37 159.17 194.24"/><polygon class="cls-2" points="173.05 183.03 173.05 194.24 162.31 194.24 160.26 196.37 175.18 196.37 175.18 180.81 173.05 183.03"/><polygon class="cls-2" points="154.39 180.02 160.76 193.02 182.55 170.28 161.59 186.2 154.39 180.02"/><rect class="cls-2" x="91.97" y="60.82" width="69.87" height="6.33"/><rect class="cls-2" x="103.05" y="54.5" width="47.71" height="6.33"/></svg>