<svg id="Layer_1" data-name="Layer 1" xmlns="http://www.w3.org/2000/svg" viewBox="0 0 300 300"><defs><style>.cls-1{fill:#3fa9f5;}.cls-2{fill:#fff;}</style></defs><title>maintenance</title><path class="cls-1" d="M182.88,216.8,180.28,204l-1.56.21L169,210.68a16.35,16.35,0,0,1-20.57-2.07l-2-2c-5.28,1-13.55,1.42-27,1.35h-8.58c-27.69.14-33.54-1.88-36.12-6.19s2.41-4.3,2.41-4.3,32.5-.14,33.71,0h8.58c.65-.07,10.29-.07,19.1-.05a16.33,16.33,0,0,1,1-16.19l1-1.55c-6.59,1.39-25.44.92-25.44.92s-19,.48-25.5-.93S71.1,163.37,79.12,163.27s36,0,36,0l11.33,0A16.34,16.34,0,0,1,120.9,151v-9.68a16.2,16.2,0,0,1,2.62-8.75c-3,0-5.84-.08-8.44-.08-21.3,0-60.4,2.08-60.4,2.08s8.4-16,10.71-19.51,4.15-4.4,9-5.55,40.64-1.66,40.64-1.66,12.32.17,23.49.55a16.73,16.73,0,0,1-.91-3.38l-22.58-.47-33.69.71S71.1,105,65.8,110.77s-17.08,23.71-18.26,26.55a25.45,25.45,0,0,1-8.12,9.93c-3.82,2.67-11.62,6-12.78,19.74a272.05,272.05,0,0,0,0,37.16,11.78,11.78,0,0,0,.6,2.67h0s-.31,20.31,7.55,20.31,12.41.23,12.63,0,5.53.57,6.36-4.91a32.26,32.26,0,0,0,.35-5.47c4-.2,8.56-.5,13.87-.64,12.6-.33,47.12-.5,47.12-.5s34.52.17,47.12.5c5.31.14,9.82.44,13.87.64a31.26,31.26,0,0,0,.35,5.47c.83,5.48,6.13,4.69,6.36,4.91s2.71.09,7.2,0A16.31,16.31,0,0,1,182.88,216.8Zm-123.17-12h0c-6.65,0-19.84-2.08-23.74-4.12a3.14,3.14,0,0,1-1.8-3.74c.38-1.51,1.57-2.69,2.71-2.69h.07c2.21.09,7.92,2,17,5.85.65.27,1.11.47,1.33.55a18.15,18.15,0,0,1,4.94,2.92A.7.7,0,0,1,59.71,204.85Zm5.08-31.75c-.86,1.23-2.89,1.46-4.22,1.66a31.78,31.78,0,0,1-5.34.23,57.88,57.88,0,0,1-9.28-.91c-9.5-1.66-10.23-7.92-10.86-12s3.88-8.38,8.25-6.69a54.45,54.45,0,0,1,9.3,5.15c1.89,1.21,3.83,2.37,5.69,3.65a37,37,0,0,1,3.87,3.07C63.63,168.57,66.27,170.94,64.79,173.1Z"/><path class="cls-1" d="M49,134.61a9,9,0,0,1-2.69-3.28c-.91-2-1.52-4.05-4.86-3.65s-10.42-.41-11.13,3.44-.64,6.78,4.69,7.59a89.49,89.49,0,0,0,11.38.82s3.75-2,3.71-2.74A7,7,0,0,0,49,134.61Z"/><path class="cls-1" d="M272.06,137.39l-14.72-3a10.28,10.28,0,0,1-7.45-6.2.42.42,0,0,0,0-.1,10.23,10.23,0,0,1,1-9.49l8.51-12.86a4.91,4.91,0,0,0-.63-6.19l-6.84-6.85a4.92,4.92,0,0,0-6.2-.62l-12.52,8.28a10.26,10.26,0,0,1-9.68.88l-.1,0a10.2,10.2,0,0,1-6-7.38l-3.08-15.1a4.91,4.91,0,0,0-4.82-3.94h-9.69a4.91,4.91,0,0,0-4.82,3.94l-3,14.71a10.23,10.23,0,0,1-6.21,7.45l-.1.05a10.21,10.21,0,0,1-9.49-1l-12.85-8.5a4.93,4.93,0,0,0-6.2.62l-6.84,6.85a4.92,4.92,0,0,0-.63,6.2l8.29,12.52a10.29,10.29,0,0,1,.88,9.68l-.05.09a10.2,10.2,0,0,1-7.37,6l-15.11,3.08a4.92,4.92,0,0,0-3.94,4.82V151a4.93,4.93,0,0,0,3.94,4.83l14.72,3a10.26,10.26,0,0,1,7.45,6.2s0,.07,0,.11a10.23,10.23,0,0,1-1,9.49L149,187.5a4.92,4.92,0,0,0,.63,6.2l6.84,6.84a4.92,4.92,0,0,0,6.2.63l12.53-8.29a10.24,10.24,0,0,1,9.67-.88l.1,0a10.26,10.26,0,0,1,6,7.38l3.07,15.11a4.93,4.93,0,0,0,4.83,3.94h9.68a4.92,4.92,0,0,0,4.82-3.94l3-14.72a10.2,10.2,0,0,1,6.2-7.45l.1,0a10.23,10.23,0,0,1,9.49,1l12.85,8.5a4.92,4.92,0,0,0,6.2-.62l6.85-6.85a4.92,4.92,0,0,0,.62-6.19l-8.29-12.53a10.24,10.24,0,0,1-.87-9.67.3.3,0,0,1,0-.1,10.2,10.2,0,0,1,7.38-6l15.1-3.07a4.93,4.93,0,0,0,3.94-4.83v-9.68A4.92,4.92,0,0,0,272.06,137.39Zm-67.9,34.23a25,25,0,1,1,25-25A25,25,0,0,1,204.16,171.62Z"/><path class="cls-2" d="M180.88,214.8,178.28,202l-1.56.21L167,208.68a16.35,16.35,0,0,1-20.57-2.07l-2-2c-5.28,1-13.55,1.42-27,1.35h-8.58c-27.69.14-33.54-1.88-36.12-6.19s2.41-4.3,2.41-4.3,32.5-.14,33.71,0h8.58c.65-.07,10.29-.07,19.1-.05a16.33,16.33,0,0,1,1-16.19l1-1.55c-6.59,1.39-25.44.92-25.44.92s-19,.48-25.5-.93S69.1,161.37,77.12,161.27s36,0,36,0l11.33,0A16.34,16.34,0,0,1,118.9,149v-9.68a16.2,16.2,0,0,1,2.62-8.75c-3,0-5.84-.08-8.44-.08-21.3,0-60.4,2.08-60.4,2.08s8.4-16,10.71-19.51,4.15-4.4,9-5.55,40.64-1.66,40.64-1.66,12.32.17,23.49.55a16.73,16.73,0,0,1-.91-3.38l-22.58-.47-33.69.71S69.1,103,63.8,108.77s-17.08,23.71-18.26,26.55a25.45,25.45,0,0,1-8.12,9.93c-3.82,2.67-11.62,6-12.78,19.74a272.05,272.05,0,0,0,0,37.16,11.78,11.78,0,0,0,.6,2.67h0s-.31,20.31,7.55,20.31,12.41.23,12.63,0,5.53.57,6.36-4.91a32.26,32.26,0,0,0,.35-5.47c4-.2,8.56-.5,13.87-.64,12.6-.33,47.12-.5,47.12-.5s34.52.17,47.12.5c5.31.14,9.82.44,13.87.64a31.26,31.26,0,0,0,.35,5.47c.83,5.48,6.13,4.69,6.36,4.91s2.71.09,7.2,0A16.31,16.31,0,0,1,180.88,214.8Zm-123.17-12h0c-6.65,0-19.84-2.08-23.74-4.12a3.14,3.14,0,0,1-1.8-3.74c.38-1.51,1.57-2.69,2.71-2.69h.07c2.21.09,7.92,2,17,5.85.65.27,1.11.47,1.33.55a18.15,18.15,0,0,1,4.94,2.92A.7.7,0,0,1,57.71,202.85Zm5.08-31.75c-.86,1.23-2.89,1.46-4.22,1.66a31.78,31.78,0,0,1-5.34.23,57.88,57.88,0,0,1-9.28-.91c-9.5-1.66-10.23-7.92-10.86-12s3.88-8.38,8.25-6.69a54.45,54.45,0,0,1,9.3,5.15c1.89,1.21,3.83,2.37,5.69,3.65a37,37,0,0,1,3.87,3.07C61.63,166.57,64.27,168.94,62.79,171.1Z"/><path class="cls-2" d="M47,132.61a9,9,0,0,1-2.69-3.28c-.91-2-1.52-4.05-4.86-3.65s-10.42-.41-11.13,3.44-.64,6.78,4.69,7.59a89.49,89.49,0,0,0,11.38.82s3.75-2,3.71-2.74A7,7,0,0,0,47,132.61Z"/><path class="cls-2" d="M270.06,135.39l-14.72-3a10.28,10.28,0,0,1-7.45-6.2.42.42,0,0,0,0-.1,10.23,10.23,0,0,1,1-9.49l8.51-12.86a4.91,4.91,0,0,0-.63-6.19l-6.84-6.85a4.92,4.92,0,0,0-6.2-.62l-12.52,8.28a10.26,10.26,0,0,1-9.68.88l-.1,0a10.2,10.2,0,0,1-6-7.38l-3.08-15.1a4.91,4.91,0,0,0-4.82-3.94h-9.69a4.91,4.91,0,0,0-4.82,3.94l-3,14.71a10.23,10.23,0,0,1-6.21,7.45l-.1.05a10.21,10.21,0,0,1-9.49-1l-12.85-8.5a4.93,4.93,0,0,0-6.2.62l-6.84,6.85a4.92,4.92,0,0,0-.63,6.2l8.29,12.52a10.29,10.29,0,0,1,.88,9.68l-.05.09a10.2,10.2,0,0,1-7.37,6l-15.11,3.08a4.92,4.92,0,0,0-3.94,4.82V149a4.93,4.93,0,0,0,3.94,4.83l14.72,3a10.26,10.26,0,0,1,7.45,6.2s0,.07,0,.11a10.23,10.23,0,0,1-1,9.49L147,185.5a4.92,4.92,0,0,0,.63,6.2l6.84,6.84a4.92,4.92,0,0,0,6.2.63l12.53-8.29a10.24,10.24,0,0,1,9.67-.88l.1,0a10.26,10.26,0,0,1,6,7.38l3.07,15.11a4.93,4.93,0,0,0,4.83,3.94h9.68a4.92,4.92,0,0,0,4.82-3.94l3-14.72a10.2,10.2,0,0,1,6.2-7.45l.1,0a10.23,10.23,0,0,1,9.49,1l12.85,8.5a4.92,4.92,0,0,0,6.2-.62l6.85-6.85a4.92,4.92,0,0,0,.62-6.19l-8.29-12.53a10.24,10.24,0,0,1-.87-9.67.3.3,0,0,1,0-.1,10.2,10.2,0,0,1,7.38-6l15.1-3.07a4.93,4.93,0,0,0,3.94-4.83v-9.68A4.92,4.92,0,0,0,270.06,135.39Zm-67.9,34.23a25,25,0,1,1,25-25A25,25,0,0,1,202.16,169.62Z"/></svg>