<svg id="Layer_1" data-name="Layer 1" xmlns="http://www.w3.org/2000/svg" viewBox="0 0 300 300"><defs><style>.cls-1{fill:#3fa9f5;}.cls-2{fill:#fff;}</style></defs><title>performance</title><path class="cls-1" d="M150.92,215.81a32.88,32.88,0,1,1,32.87-32.88A32.91,32.91,0,0,1,150.92,215.81Zm0-61.81a28.94,28.94,0,1,0,28.93,28.93A29,29,0,0,0,150.92,154Z"/><path class="cls-1" d="M132.8,199.11c-2.63-3-5.73-10.86-3.37-19,2.63-9.06,12.28-16,21.49-16s16.67,8.34,16.67,17.55A16.6,16.6,0,0,1,163.22,193l5.61,6.37a24.28,24.28,0,1,0-36-.22Z"/><polygon class="cls-1" points="150.72 180.49 150.92 185.38 130.06 183.77 150.72 180.49"/><path class="cls-1" d="M154.05,182.93a3.14,3.14,0,1,1-3.13-3.13A3.13,3.13,0,0,1,154.05,182.93Z"/><path class="cls-1" d="M224.17,184.9a53.12,53.12,0,1,1,53.13-53.12A53.18,53.18,0,0,1,224.17,184.9Zm0-102.31a49.19,49.19,0,1,0,49.19,49.19A49.25,49.25,0,0,0,224.17,82.59Z"/><path class="cls-1" d="M228.22,93.34a4,4,0,1,1-4.05-4A4,4,0,0,1,228.22,93.34Z"/><path class="cls-1" d="M208.46,96.47A4,4,0,1,1,202.93,95,4.05,4.05,0,0,1,208.46,96.47Z"/><path class="cls-1" d="M192.91,109.06a4,4,0,1,1-5.53,1.48A4,4,0,0,1,192.91,109.06Z"/><path class="cls-1" d="M185.74,127.74a4,4,0,1,1-4.05,4A4,4,0,0,1,185.74,127.74Z"/><path class="cls-1" d="M188.87,147.49a4,4,0,1,1-1.49,5.53A4.05,4.05,0,0,1,188.87,147.49Z"/><path class="cls-1" d="M255.44,154.5A4,4,0,1,1,261,153,4,4,0,0,1,255.44,154.5Z"/><path class="cls-1" d="M262.61,135.82a4,4,0,1,1,4-4A4,4,0,0,1,262.61,135.82Z"/><path class="cls-1" d="M259.48,116.06a4,4,0,1,1,1.48-5.52A4,4,0,0,1,259.48,116.06Z"/><path class="cls-1" d="M246.89,100.52A4,4,0,1,1,245.41,95,4,4,0,0,1,246.89,100.52Z"/><polygon class="cls-1" points="227.93 133.29 220.58 129.91 238.61 100.35 227.93 133.29"/><path class="cls-1" d="M229.37,131.78a5.2,5.2,0,1,1-5.2-5.2A5.19,5.19,0,0,1,229.37,131.78Z"/><path class="cls-1" d="M204.18,155v12.49h24V155Zm10.48,9.39h-3.31v-5.78h3.31Zm6.38,0h-3.3v-5.78H221Z"/><path class="cls-1" d="M77.54,184.9a53.12,53.12,0,1,1,53.12-53.12A53.18,53.18,0,0,1,77.54,184.9Zm0-102.31a49.19,49.19,0,1,0,49.18,49.19A49.24,49.24,0,0,0,77.54,82.59Z"/><path class="cls-1" d="M81.58,93.34a4,4,0,1,1-4-4A4,4,0,0,1,81.58,93.34Z"/><path class="cls-1" d="M61.82,96.47A4,4,0,1,1,56.3,95,4.05,4.05,0,0,1,61.82,96.47Z"/><path class="cls-1" d="M46.27,109.06a4,4,0,1,1-5.52,1.48A4,4,0,0,1,46.27,109.06Z"/><path class="cls-1" d="M39.1,127.74a4,4,0,1,1-4.05,4A4,4,0,0,1,39.1,127.74Z"/><path class="cls-1" d="M42.23,147.49A4,4,0,1,1,40.75,153,4.05,4.05,0,0,1,42.23,147.49Z"/><path class="cls-1" d="M108.8,154.5a4,4,0,1,1,5.52-1.48A4,4,0,0,1,108.8,154.5Z"/><path class="cls-1" d="M116,135.82a4,4,0,1,1,4-4A4,4,0,0,1,116,135.82Z"/><path class="cls-1" d="M112.84,116.06a4,4,0,1,1,1.48-5.52A4,4,0,0,1,112.84,116.06Z"/><path class="cls-1" d="M100.26,100.52A4,4,0,1,1,98.78,95,4.06,4.06,0,0,1,100.26,100.52Z"/><polygon class="cls-1" points="80.54 128.77 74.98 134.65 52.78 108.07 80.54 128.77"/><path class="cls-1" d="M82.73,131.78a5.2,5.2,0,1,1-5.19-5.2A5.19,5.19,0,0,1,82.73,131.78Z"/><path class="cls-1" d="M57.54,155v12.49h40V155Zm6.05,9.39h-3.3v-5.78h3.3Zm6.39,0h-3.3v-5.78H70Zm11.57,0h-3.3v-5.78h3.3Zm6.62,0H84.86v-5.78h3.31Zm6.61,0h-3.3v-5.78h3.3Z"/><path class="cls-2" d="M148.92,213.81a32.88,32.88,0,1,1,32.87-32.88A32.91,32.91,0,0,1,148.92,213.81Zm0-61.81a28.94,28.94,0,1,0,28.93,28.93A29,29,0,0,0,148.92,152Z"/><path class="cls-2" d="M130.8,197.11c-2.63-3-5.73-10.86-3.37-19,2.63-9.06,12.28-16,21.49-16s16.67,8.34,16.67,17.55A16.6,16.6,0,0,1,161.22,191l5.61,6.37a24.28,24.28,0,1,0-36-.22Z"/><polygon class="cls-2" points="148.72 178.49 148.92 183.38 128.06 181.77 148.72 178.49"/><path class="cls-2" d="M152.05,180.93a3.14,3.14,0,1,1-3.13-3.13A3.13,3.13,0,0,1,152.05,180.93Z"/><path class="cls-2" d="M222.17,182.9a53.12,53.12,0,1,1,53.13-53.12A53.18,53.18,0,0,1,222.17,182.9Zm0-102.31a49.19,49.19,0,1,0,49.19,49.19A49.25,49.25,0,0,0,222.17,80.59Z"/><path class="cls-2" d="M226.22,91.34a4,4,0,1,1-4.05-4A4,4,0,0,1,226.22,91.34Z"/><path class="cls-2" d="M206.46,94.47A4,4,0,1,1,200.93,93,4.05,4.05,0,0,1,206.46,94.47Z"/><path class="cls-2" d="M190.91,107.06a4,4,0,1,1-5.53,1.48A4,4,0,0,1,190.91,107.06Z"/><path class="cls-2" d="M183.74,125.74a4,4,0,1,1-4.05,4A4,4,0,0,1,183.74,125.74Z"/><path class="cls-2" d="M186.87,145.49a4,4,0,1,1-1.49,5.53A4.05,4.05,0,0,1,186.87,145.49Z"/><path class="cls-2" d="M253.44,152.5A4,4,0,1,1,259,151,4,4,0,0,1,253.44,152.5Z"/><path class="cls-2" d="M260.61,133.82a4,4,0,1,1,4-4A4,4,0,0,1,260.61,133.82Z"/><path class="cls-2" d="M257.48,114.06a4,4,0,1,1,1.48-5.52A4,4,0,0,1,257.48,114.06Z"/><path class="cls-2" d="M244.89,98.52A4,4,0,1,1,243.41,93,4,4,0,0,1,244.89,98.52Z"/><polygon class="cls-2" points="225.93 131.29 218.58 127.91 236.61 98.35 225.93 131.29"/><path class="cls-2" d="M227.37,129.78a5.2,5.2,0,1,1-5.2-5.2A5.19,5.19,0,0,1,227.37,129.78Z"/><path class="cls-2" d="M202.18,153v12.49h24V153Zm10.48,9.39h-3.31v-5.78h3.31Zm6.38,0h-3.3v-5.78H219Z"/><path class="cls-2" d="M75.54,182.9a53.12,53.12,0,1,1,53.12-53.12A53.18,53.18,0,0,1,75.54,182.9Zm0-102.31a49.19,49.19,0,1,0,49.18,49.19A49.24,49.24,0,0,0,75.54,80.59Z"/><path class="cls-2" d="M79.58,91.34a4,4,0,1,1-4-4A4,4,0,0,1,79.58,91.34Z"/><path class="cls-2" d="M59.82,94.47A4,4,0,1,1,54.3,93,4.05,4.05,0,0,1,59.82,94.47Z"/><path class="cls-2" d="M44.27,107.06a4,4,0,1,1-5.52,1.48A4,4,0,0,1,44.27,107.06Z"/><path class="cls-2" d="M37.1,125.74a4,4,0,1,1-4.05,4A4,4,0,0,1,37.1,125.74Z"/><path class="cls-2" d="M40.23,145.49A4,4,0,1,1,38.75,151,4.05,4.05,0,0,1,40.23,145.49Z"/><path class="cls-2" d="M106.8,152.5a4,4,0,1,1,5.52-1.48A4,4,0,0,1,106.8,152.5Z"/><path class="cls-2" d="M114,133.82a4,4,0,1,1,4-4A4,4,0,0,1,114,133.82Z"/><path class="cls-2" d="M110.84,114.06a4,4,0,1,1,1.48-5.52A4,4,0,0,1,110.84,114.06Z"/><path class="cls-2" d="M98.26,98.52A4,4,0,1,1,96.78,93,4.06,4.06,0,0,1,98.26,98.52Z"/><polygon class="cls-2" points="78.54 126.77 72.98 132.65 50.78 106.07 78.54 126.77"/><path class="cls-2" d="M80.73,129.78a5.2,5.2,0,1,1-5.19-5.2A5.19,5.19,0,0,1,80.73,129.78Z"/><path class="cls-2" d="M55.54,153v12.49h40V153Zm6.05,9.39h-3.3v-5.78h3.3Zm6.39,0h-3.3v-5.78H68Zm11.57,0h-3.3v-5.78h3.3Zm6.62,0H82.86v-5.78h3.31Zm6.61,0h-3.3v-5.78h3.3Z"/></svg>