<svg id="Layer_1" data-name="Layer 1" xmlns="http://www.w3.org/2000/svg" viewBox="0 0 300 300"><defs><style>.cls-1{fill:#3fa9f5;}.cls-2{fill:#fff;}.cls-3{fill:none;}</style></defs><title>steering</title><path class="cls-1" d="M108.94,48.49a69,69,0,1,0,69,69A69.07,69.07,0,0,0,108.94,48.49Zm0,10.86a58.2,58.2,0,0,1,53.22,34.78H55.73A58.19,58.19,0,0,1,108.94,59.35ZM52.08,105.4h20.8a15.37,15.37,0,0,0-.58,4.16v15.85a15.37,15.37,0,0,0,3,9.13l-15.4,14.11a57.8,57.8,0,0,1-9.1-31.17A58.66,58.66,0,0,1,52.08,105.4Zm56.86,70.21a58,58,0,0,1-42-18.06l18.45-16.92a15.62,15.62,0,0,0,2.39.2h42.43a15.6,15.6,0,0,0,2.38-.2L151,157.55A58,58,0,0,1,108.94,175.61Zm49-27-15.4-14.11a15.31,15.31,0,0,0,3-9.13V109.56a15.37,15.37,0,0,0-.58-4.16h20.8A58,58,0,0,1,158,148.65Z"/><path class="cls-1" d="M260,115.55a13.9,13.9,0,1,0,0,19.67A13.9,13.9,0,0,0,260,115.55Zm-4.35,15.32a7.76,7.76,0,1,1,0-11A7.77,7.77,0,0,1,255.63,130.87Z"/><path class="cls-1" d="M220.43,128.15,192.2,156.33l2.82,2.83-3.92,3.91-.64-.64a2.21,2.21,0,0,0-3.11,0l-.62.63a2.19,2.19,0,0,0,0,3.1l.65.65-3,3-.64-.64a2.21,2.21,0,0,0-3.11,0l-.63.63a2.2,2.2,0,0,0,0,3.11l.65.64-3,3-.65-.64a2.18,2.18,0,0,0-3.1,0l-.63.62a2.2,2.2,0,0,0,0,3.11l.64.64-37.53,37.47,4.22,4.22a17,17,0,1,0,12.81,12.84l4.22,4.22,37.53-37.47.65.65a2.18,2.18,0,0,0,3.1,0l.63-.62a2.2,2.2,0,0,0,0-3.11l-.65-.64,3-3,.65.65a2.18,2.18,0,0,0,3.1,0l.63-.62a2.2,2.2,0,0,0,0-3.11l-.64-.64,3-3,.65.65a2.2,2.2,0,0,0,3.11,0l.62-.62a2.2,2.2,0,0,0,0-3.11l-.64-.64,3.92-3.92,2.82,2.83,28.23-28.18a9.1,9.1,0,0,0,0-12.86l-7-7-7-7A9.08,9.08,0,0,0,220.43,128.15ZM143.55,245.21a9.5,9.5,0,1,1,0-13.43A9.49,9.49,0,0,1,143.55,245.21Zm14.1-13.69-13.8-13.82L177.65,184l13.8,13.82Zm37.53-37.47-13.8-13.83,3-3,13.8,13.82Zm6.72-6.71-13.8-13.83,3-3,13.8,13.82Zm-7.07-20.54,2-2.05,13.8,13.82-2.05,2.05Z"/><path class="cls-2" d="M106.94,46.49a69,69,0,1,0,69,69A69.07,69.07,0,0,0,106.94,46.49Zm0,10.86a58.2,58.2,0,0,1,53.22,34.78H53.73A58.19,58.19,0,0,1,106.94,57.35ZM50.08,103.4h20.8a15.37,15.37,0,0,0-.58,4.16v15.85a15.37,15.37,0,0,0,3,9.13l-15.4,14.11a57.8,57.8,0,0,1-9.1-31.17A58.66,58.66,0,0,1,50.08,103.4Zm56.86,70.21a58,58,0,0,1-42-18.06l18.45-16.92a15.62,15.62,0,0,0,2.39.2h42.43a15.6,15.6,0,0,0,2.38-.2L149,155.55A58,58,0,0,1,106.94,173.61Zm49-27-15.4-14.11a15.31,15.31,0,0,0,3-9.13V107.56a15.37,15.37,0,0,0-.58-4.16h20.8A58,58,0,0,1,156,146.65Z"/><path class="cls-2" d="M258,113.55a13.9,13.9,0,1,0,0,19.67A13.9,13.9,0,0,0,258,113.55Zm-4.35,15.32a7.76,7.76,0,1,1,0-11A7.77,7.77,0,0,1,253.63,128.87Z"/><path class="cls-2" d="M218.43,126.15,190.2,154.33l2.82,2.83-3.92,3.91-.64-.64a2.21,2.21,0,0,0-3.11,0l-.62.63a2.19,2.19,0,0,0,0,3.1l.65.65-3,3-.64-.64a2.21,2.21,0,0,0-3.11,0l-.63.63a2.2,2.2,0,0,0,0,3.11l.65.64-3,3-.65-.64a2.18,2.18,0,0,0-3.1,0l-.63.62a2.2,2.2,0,0,0,0,3.11l.64.64-37.53,37.47,4.22,4.22a17,17,0,1,0,12.81,12.84l4.22,4.22,37.53-37.47.65.65a2.18,2.18,0,0,0,3.1,0l.63-.62a2.2,2.2,0,0,0,0-3.11l-.65-.64,3-3,.65.65a2.18,2.18,0,0,0,3.1,0l.63-.62a2.2,2.2,0,0,0,0-3.11l-.64-.64,3-3,.65.65a2.2,2.2,0,0,0,3.11,0l.62-.62a2.2,2.2,0,0,0,0-3.11l-.64-.64,3.92-3.92,2.82,2.83,28.23-28.18a9.1,9.1,0,0,0,0-12.86l-7-7-7-7A9.08,9.08,0,0,0,218.43,126.15ZM141.55,243.21a9.5,9.5,0,1,1,0-13.43A9.49,9.49,0,0,1,141.55,243.21Zm14.1-13.69-13.8-13.82L175.65,182l13.8,13.82Zm37.53-37.47-13.8-13.83,3-3,13.8,13.82Zm6.72-6.71-13.8-13.83,3-3,13.8,13.82Zm-7.07-20.54,2-2.05,13.8,13.82-2.05,2.05Z"/><polyline class="cls-3" points="-282 582 -282 -282 582 -282"/><polyline class="cls-3" points="-282 582 -282 -282 582 -282"/></svg>