<svg id="Layer_1" data-name="Layer 1" xmlns="http://www.w3.org/2000/svg" viewBox="0 0 300 300"><defs><style>.cls-1{fill:#3fa9f5;}.cls-2{fill:#fff;}</style></defs><title>tires</title><path class="cls-1" d="M152,56.76A95.24,95.24,0,1,0,247.24,152,95.24,95.24,0,0,0,152,56.76Zm0,166.17A70.93,70.93,0,1,1,222.93,152,70.93,70.93,0,0,1,152,222.93Z"/><path class="cls-1" d="M167.93,169.72l-4.32-2.63a2.48,2.48,0,0,1-.6.61,2.69,2.69,0,0,1-3,.08l.16,6.64,1,37.48a60.61,60.61,0,0,0,38.6-22.65Zm40.24-40.46L175.3,147.07l-6.94,3.77-.54-.93a2.71,2.71,0,0,1-2.49-4.32l-4.53-7.84,6.5-4,32-19.65A60.54,60.54,0,0,0,160.39,92l-1,37.34-.22,7.92h-4.89a2.71,2.71,0,0,1-4.54,0h-5.68l-.19-7.68-1-37.48a60.61,60.61,0,0,0-38.6,22.65l31.82,19.53,6.75,4.13-4.18,7.21a2.59,2.59,0,0,1,.27,2.21,2.75,2.75,0,0,1-2.62,1.89l-1,1.8-6.74-3.66L95.56,130a60.55,60.55,0,0,0,.27,44.74l32.84-17.81,7-3.77,5.6,9.67a2.6,2.6,0,0,1,2.51.36,2.7,2.7,0,0,1-2.92,4.53l-4.13,2.52-32,19.64A60.43,60.43,0,0,0,143.61,212l1-37.32.22-7.92h14.21a2.64,2.64,0,0,1,.79-3.42,2.67,2.67,0,0,1,2.79-.24l6.12-10.6,6.72,3.63,33,17.9a60.58,60.58,0,0,0-.27-44.75ZM152,164.42A12.42,12.42,0,1,1,164.4,152,12.42,12.42,0,0,1,152,164.42Z"/><path class="cls-1" d="M147,152a5,5,0,1,0,5-5A5,5,0,0,0,147,152Z"/><path class="cls-1" d="M175.3,147.07a23.43,23.43,0,0,0-8-13.3,23.12,23.12,0,0,0-7.92-4.43,23.86,23.86,0,0,0-15.52.24,24.44,24.44,0,0,0-7.79,4.7,23.66,23.66,0,0,0-7.56,13.58,22.58,22.58,0,0,0-.36,4.13,22.32,22.32,0,0,0,.52,4.94,23.65,23.65,0,0,0,8,13.31,23.1,23.1,0,0,0,7.92,4.42,23.47,23.47,0,0,0,7.38,1.18,23.81,23.81,0,0,0,8.14-1.42,24.44,24.44,0,0,0,7.79-4.7A23.73,23.73,0,0,0,175.82,152,22.08,22.08,0,0,0,175.3,147.07Zm-5.21-.68a2.72,2.72,0,0,1-1.75,3.41,3.46,3.46,0,0,1-.52.11,2.71,2.71,0,0,1-2.49-4.32,2.84,2.84,0,0,1,1.34-1A2.72,2.72,0,0,1,170.09,146.39ZM152,133.08a2.71,2.71,0,1,1-2.7,2.71A2.69,2.69,0,0,1,152,133.08Zm0,6.5A12.42,12.42,0,1,1,139.6,152,12.41,12.41,0,0,1,152,139.58Zm-18.25,6.59a2.73,2.73,0,0,1,3.42-1.75,2.77,2.77,0,0,1,1.74,3.41,2.75,2.75,0,0,1-2.62,1.89,2.44,2.44,0,0,1-.79-.14A2.72,2.72,0,0,1,133.75,146.17ZM144.35,167a2.72,2.72,0,0,1-3.52.76c-.11-.05-.19-.11-.28-.16a2.68,2.68,0,0,1,.69-4.73,2.6,2.6,0,0,1,2.51.36A2.7,2.7,0,0,1,144.35,167Zm18.66.74a2.69,2.69,0,0,1-3,.08,2.43,2.43,0,0,1-.74-.69.92.92,0,0,1-.19-.35,2.64,2.64,0,0,1,.79-3.42,2.67,2.67,0,0,1,2.79-.24,2.75,2.75,0,0,1,1,.82,2.7,2.7,0,0,1,0,3.19A2.48,2.48,0,0,1,163,167.7Z"/><path class="cls-2" d="M150,54.76A95.24,95.24,0,1,0,245.24,150,95.24,95.24,0,0,0,150,54.76Zm0,166.17A70.93,70.93,0,1,1,220.93,150,70.93,70.93,0,0,1,150,220.93Z"/><path class="cls-2" d="M165.93,167.72l-4.32-2.63a2.48,2.48,0,0,1-.6.61,2.69,2.69,0,0,1-3,.08l.16,6.64,1,37.48a60.61,60.61,0,0,0,38.6-22.65Zm40.24-40.46L173.3,145.07l-6.94,3.77-.54-.93a2.71,2.71,0,0,1-2.49-4.32l-4.53-7.84,6.5-4,32-19.65A60.54,60.54,0,0,0,158.39,90l-1,37.34-.22,7.92h-4.89a2.71,2.71,0,0,1-4.54,0h-5.68l-.19-7.68-1-37.48a60.61,60.61,0,0,0-38.6,22.65l31.82,19.53,6.75,4.13-4.18,7.21a2.59,2.59,0,0,1,.27,2.21,2.75,2.75,0,0,1-2.62,1.89l-1,1.8-6.74-3.66L93.56,128a60.55,60.55,0,0,0,.27,44.74l32.84-17.81,7-3.77,5.6,9.67a2.6,2.6,0,0,1,2.51.36,2.7,2.7,0,0,1-2.92,4.53l-4.13,2.52-32,19.64A60.43,60.43,0,0,0,141.61,210l1-37.32.22-7.92h14.21a2.64,2.64,0,0,1,.79-3.42,2.67,2.67,0,0,1,2.79-.24l6.12-10.6,6.72,3.63,33,17.9a60.58,60.58,0,0,0-.27-44.75ZM150,162.42A12.42,12.42,0,1,1,162.4,150,12.42,12.42,0,0,1,150,162.42Z"/><path class="cls-2" d="M145,150a5,5,0,1,0,5-5A5,5,0,0,0,145,150Z"/><path class="cls-2" d="M173.3,145.07a23.43,23.43,0,0,0-8-13.3,23.12,23.12,0,0,0-7.92-4.43,23.86,23.86,0,0,0-15.52.24,24.44,24.44,0,0,0-7.79,4.7,23.66,23.66,0,0,0-7.56,13.58,22.58,22.58,0,0,0-.36,4.13,22.32,22.32,0,0,0,.52,4.94,23.65,23.65,0,0,0,8,13.31,23.1,23.1,0,0,0,7.92,4.42,23.47,23.47,0,0,0,7.38,1.18,23.81,23.81,0,0,0,8.14-1.42,24.44,24.44,0,0,0,7.79-4.7A23.73,23.73,0,0,0,173.82,150,22.08,22.08,0,0,0,173.3,145.07Zm-5.21-.68a2.72,2.72,0,0,1-1.75,3.41,3.46,3.46,0,0,1-.52.11,2.71,2.71,0,0,1-2.49-4.32,2.84,2.84,0,0,1,1.34-1A2.72,2.72,0,0,1,168.09,144.39ZM150,131.08a2.71,2.71,0,1,1-2.7,2.71A2.69,2.69,0,0,1,150,131.08Zm0,6.5A12.42,12.42,0,1,1,137.6,150,12.41,12.41,0,0,1,150,137.58Zm-18.25,6.59a2.73,2.73,0,0,1,3.42-1.75,2.77,2.77,0,0,1,1.74,3.41,2.75,2.75,0,0,1-2.62,1.89,2.44,2.44,0,0,1-.79-.14A2.72,2.72,0,0,1,131.75,144.17ZM142.35,165a2.72,2.72,0,0,1-3.52.76c-.11-.05-.19-.11-.28-.16a2.68,2.68,0,0,1,.69-4.73,2.6,2.6,0,0,1,2.51.36A2.7,2.7,0,0,1,142.35,165Zm18.66.74a2.69,2.69,0,0,1-3,.08,2.43,2.43,0,0,1-.74-.69.92.92,0,0,1-.19-.35,2.64,2.64,0,0,1,.79-3.42,2.67,2.67,0,0,1,2.79-.24,2.75,2.75,0,0,1,1,.82,2.7,2.7,0,0,1,0,3.19A2.48,2.48,0,0,1,161,165.7Z"/></svg>