<svg id="Layer_1" data-name="Layer 1" xmlns="http://www.w3.org/2000/svg" viewBox="0 0 300 300"><defs><style>.cls-1{fill:#3fa9f5;}.cls-2{fill:#fff;}</style></defs><title>transmission</title><path class="cls-1" d="M94.57,94.12H89.25l-1.74,7h7.06a3.48,3.48,0,1,0,0-7Z"/><path class="cls-1" d="M189.24,45H115.73a76.27,76.27,0,0,0-76.26,76.26v62.51A76.26,76.26,0,0,0,115.73,260h73.51a76.26,76.26,0,0,0,76.26-76.26V121.23A76.26,76.26,0,0,0,189.24,45Zm-25.62,62.36a3,3,0,0,1,3,3c0,1.84,2.59,3.89,6.31,3.89s6.31-2,6.31-3.89-2.59-3.88-6.31-3.88a3,3,0,0,1,0-6c3,0,5.22-1.62,5.22-3.07s-2.23-3.08-5.22-3.08-5.22,1.63-5.22,3.08a3,3,0,1,1-6,0c0-5.09,4.93-9.08,11.22-9.08s11.22,4,11.22,9.08a8.09,8.09,0,0,1-2.63,5.83,9,9,0,0,1,3.72,7.12c0,5.55-5.41,9.89-12.31,9.89s-12.31-4.34-12.31-9.89A3,3,0,0,1,163.62,107.33ZM123.9,98.55l12.4-8.87s.09,0,.12-.06a3.64,3.64,0,0,1,.57-.25,3.34,3.34,0,0,1,.5-.18,2.25,2.25,0,0,1,.58,0,2.82,2.82,0,0,1,.58,0h.12a2.93,2.93,0,0,1,.4.19,2.31,2.31,0,0,1,.55.26,2.57,2.57,0,0,1,.45.42,3,3,0,0,1,.32.29l0,.12a2.69,2.69,0,0,1,.26.57,3.34,3.34,0,0,1,.18.5,3.11,3.11,0,0,1,0,.53,2.28,2.28,0,0,1,0,.64.48.48,0,0,1,0,.12L134.67,118a3,3,0,0,1-2.91,2.27,3,3,0,0,1-.73-.09,3,3,0,0,1-2.18-3.64l4.31-17.22-5.77,4.12a3,3,0,0,1-3.49-4.88ZM80.49,119.82a3,3,0,0,1-2.92-3.73l6.24-25v0a3,3,0,0,1,3-3h7.76a9.46,9.46,0,0,1,.9,18.87l4.39,8.89a3,3,0,1,1-5.38,2.65l-5.66-11.45H86l-2.62,10.47A3,3,0,0,1,80.49,119.82Zm61.27,98.87H121.94a2.89,2.89,0,0,1-1.37-.37,3.62,3.62,0,0,1-.32-.22,3.16,3.16,0,0,1-.8-.83c0-.07-.12-.1-.16-.17s0-.09,0-.13a2.75,2.75,0,0,1-.16-.56,2.47,2.47,0,0,1-.12-.59.79.79,0,0,1,0-.13,3,3,0,0,1,.08-.41,2.55,2.55,0,0,1,.13-.61,2.38,2.38,0,0,1,.26-.5,2.59,2.59,0,0,1,.32-.47,2.86,2.86,0,0,1,.47-.39,2.78,2.78,0,0,1,.33-.27l14.29-7.58a6.85,6.85,0,0,0,3.84-7.06,6.92,6.92,0,0,0-10.83-4.33A6.93,6.93,0,0,0,125,198.7a3,3,0,0,1-5.93-.87,12.86,12.86,0,1,1,18.56,12.94L134,212.69h7.75a3,3,0,0,1,0,6ZM185.35,191l-6.28,25.13a3,3,0,0,1-2.91,2.28,3,3,0,0,1-.73-.09,3,3,0,0,1-2.18-3.64l2.41-9.65H163.29a3,3,0,0,1-1.35-.36c-.05,0-.1,0-.14,0a3.27,3.27,0,0,1-.27-.24,3.07,3.07,0,0,1-.47-.41,3.46,3.46,0,0,1-.31-.47,2.67,2.67,0,0,1-.25-.51,4,4,0,0,1-.12-.6c0-.12-.07-.23-.07-.36a1.29,1.29,0,0,1,0-.19,2.87,2.87,0,0,1,.11-.57,3.6,3.6,0,0,1,.2-.58c0-.06,0-.12.06-.18l7.08-12.14a3,3,0,0,1,5.18,3L168.53,199h8.63l2.37-9.48a3,3,0,0,1,5.82,1.45ZM217,152.58a3,3,0,0,1-3,3H175.93V173.5a3,3,0,0,1-6,0V155.58H134.85V173.5a3,3,0,0,1-6,0V155.58H90.76a3,3,0,0,1-3-3V131.66a3,3,0,0,1,6,0v17.92h35.09V131.66a3,3,0,0,1,6,0v17.92h35.08V131.66a3,3,0,0,1,6,0v17.92H211V131.66a3,3,0,1,1,6,0Zm-5.68-32.37a16.8,16.8,0,0,1-9.3-2.67,3,3,0,1,1,3.33-5,10.86,10.86,0,0,0,6,1.64c4.36,0,8.2-2.35,8.2-5,0-2.39-3.37-5-8.2-5a10.85,10.85,0,0,0-6,1.65,2,2,0,0,1-.22.09,2.65,2.65,0,0,1-.72.29,1.76,1.76,0,0,1-.4.07,3.23,3.23,0,0,1-.33.06,4,4,0,0,1-.47-.06l-.16,0H203a3,3,0,0,1-.4-.2,3.06,3.06,0,0,1-.58-.27,3.11,3.11,0,0,1-.48-.48,1.7,1.7,0,0,1-.3-.3s0,0,0-.06a2.87,2.87,0,0,1-.27-.65,3.89,3.89,0,0,1-.16-.44,4,4,0,0,1,0-.49,2.57,2.57,0,0,1,0-.68s0,0,0-.07l3-12.14c0-.08.07-.13.09-.21a4.23,4.23,0,0,1,.27-.57,3.3,3.3,0,0,1,.3-.43,3.47,3.47,0,0,1,.45-.41,3.52,3.52,0,0,1,.45-.3,2.39,2.39,0,0,1,.53-.19,2.46,2.46,0,0,1,.6-.12,1.42,1.42,0,0,1,.22,0h14.37a3,3,0,0,1,0,6h-12L208,98.45a18.25,18.25,0,0,1,3.33-.34c8,0,14.2,4.85,14.2,11S219.29,120.21,211.33,120.21Z"/><path class="cls-2" d="M91.6,91.15H86.28L84.54,98.1H91.6a3.48,3.48,0,0,0,0-6.95Z"/><path class="cls-2" d="M186.27,42H112.76A76.26,76.26,0,0,0,36.5,118.26v62.51A76.26,76.26,0,0,0,112.76,257h73.51a76.27,76.27,0,0,0,76.26-76.26V118.26A76.26,76.26,0,0,0,186.27,42Zm-25.63,62.36a3,3,0,0,1,3,3c0,1.84,2.6,3.88,6.32,3.88s6.31-2,6.31-3.88-2.59-3.88-6.31-3.88a3,3,0,0,1,0-6c3,0,5.21-1.63,5.21-3.08s-2.23-3.07-5.21-3.07-5.22,1.62-5.22,3.07a3,3,0,1,1-6,0c0-5.09,4.93-9.07,11.22-9.07s11.21,4,11.21,9.07a8.09,8.09,0,0,1-2.62,5.84,9,9,0,0,1,3.72,7.12c0,5.54-5.41,9.88-12.31,9.88s-12.32-4.34-12.32-9.88A3,3,0,0,1,160.64,104.36Zm-39.71-8.79,12.4-8.87.12,0a2.41,2.41,0,0,1,.57-.25,2.13,2.13,0,0,1,.5-.18,2.72,2.72,0,0,1,.57,0,2.92,2.92,0,0,1,.59,0s.08,0,.12,0a2.32,2.32,0,0,1,.39.18,3.2,3.2,0,0,1,.56.27,3,3,0,0,1,.45.42,2.89,2.89,0,0,1,.32.29s0,.08,0,.11a4.11,4.11,0,0,1,.25.57,2.38,2.38,0,0,1,.18.51,2.33,2.33,0,0,1,0,.53,3.47,3.47,0,0,1,0,.64s0,.07,0,.11L131.69,115a3,3,0,0,1-2.9,2.28,3,3,0,0,1-2.92-3.73l4.31-17.23-5.76,4.13a3,3,0,0,1-1.74.55,3,3,0,0,1-1.75-5.44ZM77.51,116.85a2.62,2.62,0,0,1-.73-.1,3,3,0,0,1-2.18-3.63l6.24-25h0a3,3,0,0,1,3-3H91.6A9.45,9.45,0,0,1,92.5,104l4.39,8.89a3,3,0,0,1-1.37,4,3,3,0,0,1-1.32.31,3,3,0,0,1-2.7-1.67l-5.65-11.45H83l-2.62,10.46A3,3,0,0,1,77.51,116.85Zm61.27,98.87H119a2.94,2.94,0,0,1-1.38-.38c-.11-.06-.21-.14-.32-.21a3,3,0,0,1-.79-.83c0-.07-.13-.1-.17-.18a.61.61,0,0,1,0-.13,2.51,2.51,0,0,1-.17-.55,3.19,3.19,0,0,1-.12-.6s0-.08,0-.12a2.7,2.7,0,0,1,.08-.41,3.14,3.14,0,0,1,.12-.61,2.65,2.65,0,0,1,.27-.5,3.08,3.08,0,0,1,.32-.48,2.89,2.89,0,0,1,.47-.38,2.22,2.22,0,0,1,.33-.28l14.29-7.57a6.85,6.85,0,0,0,3.83-7.07,6.92,6.92,0,0,0-13.64.3,3,3,0,1,1-5.94-.87,12.91,12.91,0,0,1,25.47-.55c1,5.25-1.84,10.8-6.91,13.49L131,209.72h7.74a3,3,0,0,1,0,6ZM182.38,188l-6.29,25.13a3,3,0,0,1-2.9,2.27,2.61,2.61,0,0,1-.73-.09,3,3,0,0,1-2.19-3.63l2.42-9.66H160.32a2.81,2.81,0,0,1-1.35-.37c-.05,0-.1,0-.15,0a2,2,0,0,1-.27-.24,2.94,2.94,0,0,1-.46-.41,2.59,2.59,0,0,1-.32-.47,2.66,2.66,0,0,1-.24-.51,2.38,2.38,0,0,1-.12-.59,2.45,2.45,0,0,1-.08-.37c0-.06,0-.12,0-.18a3,3,0,0,1,.12-.58,2.49,2.49,0,0,1,.2-.58,1.54,1.54,0,0,1,.05-.17l7.09-12.14a3,3,0,0,1,5.18,3L165.56,196h8.63l2.37-9.48a3,3,0,0,1,5.82,1.46ZM214,149.61a3,3,0,0,1-3,3H173v17.91a3,3,0,0,1-6,0V152.61H131.87v17.91a3,3,0,0,1-6,0V152.61H87.79a3,3,0,0,1-3-3V128.69a3,3,0,0,1,6,0v17.92h35.08V128.69a3,3,0,0,1,6,0v17.92H167V128.69a3,3,0,0,1,6,0v17.92H208V128.69a3,3,0,0,1,6,0Zm-5.69-32.38a16.84,16.84,0,0,1-9.3-2.66,3,3,0,0,1,3.34-5,10.83,10.83,0,0,0,6,1.65c4.37,0,8.2-2.36,8.2-5,0-2.38-3.37-5-8.2-5a10.85,10.85,0,0,0-6,1.64,2.14,2.14,0,0,1-.22.1,3.65,3.65,0,0,1-.71.29l-.4.07c-.11,0-.22.05-.33.05a2.42,2.42,0,0,1-.47-.06,1,1,0,0,1-.17,0H200a3,3,0,0,1-.41-.19,2.58,2.58,0,0,1-.58-.28,3,3,0,0,1-.48-.47c-.09-.11-.21-.18-.3-.3a.64.64,0,0,1,0-.07,2.8,2.8,0,0,1-.27-.64,3.89,3.89,0,0,1-.16-.44,2.78,2.78,0,0,1,0-.5,3,3,0,0,1,0-.67s0,0,0-.07l3-12.15a1.86,1.86,0,0,1,.1-.2,2.72,2.72,0,0,1,.27-.57,2.63,2.63,0,0,1,.3-.44,2.47,2.47,0,0,1,.45-.4,2.63,2.63,0,0,1,.44-.3,3.16,3.16,0,0,1,.54-.2,3.62,3.62,0,0,1,.59-.12c.08,0,.14,0,.22,0h14.37a3,3,0,0,1,0,6h-12L205,95.48a18.43,18.43,0,0,1,3.33-.34c8,0,14.2,4.85,14.2,11S216.31,117.23,208.35,117.23Z"/></svg>