<svg id="Layer_1" data-name="Layer 1" xmlns="http://www.w3.org/2000/svg" viewBox="0 0 500 400"><defs><style>.cls-1{fill:#fff;}.cls-1,.cls-2,.cls-3,.cls-4,.cls-5,.cls-7{fill-rule:evenodd;}.cls-2{fill:#231f20;}.cls-3{fill:#d0432f;}.cls-4{fill:#324794;}.cls-5{fill:#ed1c24;}.cls-6{fill:#ef3826;}.cls-7{fill:#010101;}</style></defs><title>brands-collage</title><polygon class="cls-1" points="302.04 132.69 494.79 132.69 494.79 325.44 302.04 325.44 302.04 132.69 302.04 132.69"/><polygon class="cls-2" points="348.14 248.11 339.61 248.11 339.61 224.08 348.14 224.08 348.14 248.11 348.14 248.11"/><polygon class="cls-2" points="403.77 226.42 403.77 212.79 412.95 212.79 412.95 248.11 403.77 248.11 403.77 233.63 390.52 233.63 390.52 248.11 381.34 248.11 381.34 212.79 390.52 212.79 390.52 226.42 403.77 226.42 403.77 226.42"/><path class="cls-2" d="M463.44,231.24c-4.73,0-7.64,3-7.64,7.17v9.7h-8.53v-24h8.53V228h.09a8.32,8.32,0,0,1,7.56-4.26v7.49Z"/><path class="cls-2" d="M317.89,212.79h-13v35.32h13a17.66,17.66,0,1,0,0-35.32Zm-1.78,27.54h-2.06V220.57h2.16c5.9,0,10.07,3.56,10.07,9.88,0,6.88-4.69,9.88-10.17,9.88Z"/><path class="cls-2" d="M377.67,236.63c0-8.19-4.82-13.35-13.16-13.35-7.82,0-13.3,4.83-13.3,12.84,0,8.29,6,12.78,13.91,12.78,5.48,0,10.87-2.57,12.23-8.24h-8.2a4.27,4.27,0,0,1-4.08,2.2c-3.51,0-5.33-1.87-5.33-5.34h17.93v-.89Zm-17.79-4c.51-2.48,1.73-4.14,5.05-4.14,3.12,0,4.41,1.85,4.83,4.14Z"/><path class="cls-2" d="M435.52,224.08v2.34a9.78,9.78,0,0,0-7.44-3.14c-7.12,0-12,5.9-12,12.79s5,12.83,12.13,12.83c2.81,0,5.76-1.07,7.26-3.46h.09v2.67h8.53v-24Zm-5.2,18c-3.46,0-5.48-2.59-5.48-5.95s2-6,5.48-6,5.48,2.74,5.48,6-2,5.95-5.48,5.95Z"/><path class="cls-2" d="M483.43,209.23v17.19a9.78,9.78,0,0,0-7.44-3.14c-7.12,0-12,5.9-12,12.79s5,12.83,12.13,12.83c2.81,0,5.76-1.07,7.26-3.46h.09v2.67H492V209.23Zm-5.2,32.83c-3.46,0-5.48-2.59-5.48-5.95s2-6,5.48-6,5.48,2.74,5.48,6-2,5.95-5.48,5.95Z"/><path class="cls-2" d="M343.87,219.65a4.8,4.8,0,1,0-4.79-4.8,4.8,4.8,0,0,0,4.79,4.8Z"/><polygon class="cls-1" points="306.29 207.28 499.05 207.28 499.05 400.03 306.29 400.03 306.29 207.28 306.29 207.28"/><polygon class="cls-2" points="496.21 323.2 496.21 283.1 456.12 283.1 456.12 323.2 496.21 323.2 496.21 323.2 496.21 323.2"/><path class="cls-3" d="M353.59,308.84a15.35,15.35,0,1,1,15.35,15.35,15.34,15.34,0,0,1-15.35-15.35Zm15.33,6.76a6.8,6.8,0,1,0-6.8-6.8,6.79,6.79,0,0,0,6.8,6.8Z"/><path class="cls-1" d="M474.3,286.23h6.61v33.4h-7.32V293.55h-5v-4.82h0s4.58.88,5.72-2.5Z"/><polygon class="cls-4" points="309.13 283.16 321.99 283.16 329.31 308.16 336.81 283.16 349.13 283.16 349.13 323.1 340.92 323.1 340.92 295.3 332.7 323.1 325.2 323.1 317.52 295.13 317.52 323.17 309.13 323.17 309.13 283.16 309.13 283.16 309.13 283.16"/><polygon class="cls-4" points="387 283.16 395.21 283.16 395.21 323.1 387 323.1 387 283.16 387 283.16 387 283.16"/><path class="cls-4" d="M389.34,309c0-8.48,6.42-15.35,14.35-15.35S418,300.48,418,309s-6.43,15.34-14.35,15.34-14.35-6.87-14.35-15.34Zm13.35,6.87a6.8,6.8,0,1,0-6.79-6.8,6.81,6.81,0,0,0,6.79,6.8Z"/><polygon class="cls-4" points="433.76 283.18 441.97 283.18 441.97 323.12 433.76 323.12 433.76 283.18 433.76 283.18 433.76 283.18"/><polygon class="cls-4" points="421.14 293.51 429.36 293.51 429.36 323.2 421.14 323.2 421.14 293.51 421.14 293.51 421.14 293.51"/><polygon class="cls-4" points="429.43 291.38 429.43 283 421.06 283 421.06 291.38 429.43 291.38 429.43 291.38 429.43 291.38"/><polygon class="cls-1" points="0 0.24 192.76 0.24 192.76 193 0 193 0 0.24 0 0.24"/><path class="cls-2" d="M176.41,22.31V17.74H16.26V175.42h2.29L53.6,22.31ZM55.06,97.81h10.8l1.28-6H49.2l-4.94,23.34h7.23l1.37-6.77h10.8l1.1-5.5H54.05l1-5ZM83,103H77.48l1.19-5.68h5.58c1.83,0,2.47,1.1,2.47,2A3.93,3.93,0,0,1,83,103ZM93.86,97.9c0-4.94-3.29-6.13-7.59-6.13H72.72l-4.85,23.34h7l1.55-7h4.76c2,0,2.93.92,2.93,2.2,0,1.1-.18,1.46-.18,2.56a4.37,4.37,0,0,0,.36,2.29h6.87c-.64-1.47-.37-3.75-.37-6s-.36-4.3-2.47-4.76a6.35,6.35,0,0,0,5.49-6.5ZM105.39,106l3.66-7.87.83,7.87Zm10.8-14.19H104.75l-11,23.34H101l1.65-3.39h7.87l.27,3.39h7.32l-1.92-23.34ZM153,115.11l4.94-23.34H146.57l-7.32,14.09-1.1-14.09H126.62l-4.85,23.34h6.68L131.66,99h0l.91,16.11h8.79L149.87,99h0l-3.57,16.11Zm4.21,3.66H158v-1.28h.64c.64,0,.64.27.64.55,0,.45,0,.64.19.73h.82c-.09-.18-.09-.28-.09-.73s-.09-.83-.55-.92h0a1,1,0,0,0,.64-.91c0-.64-.46-1.1-1.28-1.1h-1.83v3.66Zm.82-2.93h.83c.27,0,.55.09.55.46s-.28.46-.55.46H158v-.92Zm.73-1.46a2.62,2.62,0,0,1,2.57,2.56,2.57,2.57,0,0,1-5.13,0,2.62,2.62,0,0,1,2.56-2.56Zm0-.37a2.89,2.89,0,0,1,2.93,2.93,2.93,2.93,0,1,1-5.85,0,2.89,2.89,0,0,1,2.92-2.93Z"/><path class="cls-5" d="M92.58,54.07l-7,30.38h87.4L164.42,122H76.93L64.67,175.51H176.5V54.07Zm53.9,90.32-.64,2.56a8.88,8.88,0,0,0-1.46-.36,8.57,8.57,0,0,0-1.47-.09,3.89,3.89,0,0,0-1.1.09c-.45.09-.64.27-.64.64s.28.46.83.55a6.14,6.14,0,0,0,1,.18,4.67,4.67,0,0,1,1.65.64,1.94,1.94,0,0,1,1,1.83,4.19,4.19,0,0,1-.37,1.47,3.2,3.2,0,0,1-.91,1.19,5.38,5.38,0,0,1-2.38,1.19,14.09,14.09,0,0,1-2.11.18,16.41,16.41,0,0,1-2.19-.09,10.88,10.88,0,0,1-1.83-.46l.55-2.56a5.75,5.75,0,0,0,1.73.55,10.28,10.28,0,0,0,1.65.18,2.91,2.91,0,0,0,1.47-.28.65.65,0,0,0,.36-.54.69.69,0,0,0-.18-.46,2.34,2.34,0,0,1-.64-.18l-1.1-.19a4,4,0,0,1-2-1,1.7,1.7,0,0,1-.46-1.47,3.38,3.38,0,0,1,1.28-2.65,6.93,6.93,0,0,1,4.39-1.28,11.87,11.87,0,0,1,1.74.09,12.83,12.83,0,0,1,1.83.27Zm-14.09,2.93a.81.81,0,0,0-.28-.64,1.67,1.67,0,0,0-1-.18h-1l-.46,2.1h.92a2.37,2.37,0,0,0,1.55-.46,1.07,1.07,0,0,0,.28-.82Zm4.12-.82a3.39,3.39,0,0,1-.92,2,4.18,4.18,0,0,1-2.1,1,2,2,0,0,1,1,.45,1.87,1.87,0,0,1,.55,1.38l-.09,2.93h-4l.19-2.48a.7.7,0,0,0-.28-.82.77.77,0,0,0-.64-.18h-.91l-.83,3.48h-3.84l2.29-10.07h6.77a3,3,0,0,1,1.92.55,2,2,0,0,1,.92,1.74Zm-11.08-2.29-.55,2.38h-4.94l-.36,1.46h4.76l-.55,2.29h-4.67l-.37,1.56h5l-.55,2.38h-8.88l2.38-10.07Zm-9.61,0-.64,3H111.8l-1.65,7.05h-3.84l1.64-7.05h-3.47l.73-3Zm-12.9,7.14-.64,2.93h-8.6L96,144.21h3.84l-1.65,7.14Zm-8.6-7.14-2.38,10.07H88.1l2.38-10.07Zm-5.13,0-.54,2.38H83.89l-.37,1.65H88.1l-.55,2.38H83l-.91,3.66H78.21l2.29-10.07Z"/><path d="M161.93,371.48l-3.23,12.26c-.68,0-1.62.27-2.83.27-6.33,0-5.66-2.16-3-12.53,2.7-10.92,4.58-13.07,8.49-13.07s3.91,2.69,2.7,6.06h10c1.48-6.47.27-11.86-10.92-11.86-12.66,0-16.3,2.7-20.21,18.87-4,14.68-2.83,18.59,11.19,18.59,6.33,0,9-.27,12.93-1.21l4.85-17.38"/><path d="M185.24,383.33c-1.21,0-1.75-.27-1.48-1.21l2.42-8.76h13.07l1.48-5.79H187.4l1.48-5.8c.67-1.61,1.61-2.83,3.64-2.83h10.64l1.48-5.79H189.28c-6.47,0-8.22,1.21-10.64,10.65l-4.58,17.51c-1.22,6.06.27,8.49,5.12,8.49h13.07a5,5,0,0,0,5.12-3.37l1.21-3.1"/><path d="M334.93,383.33c-1.21,0-1.88-.27-1.61-1.21l2.15-8.76h13.07l1.48-5.79H337l1.62-5.8a3.36,3.36,0,0,1,3.64-2.83h10.24l1.48-5.79H338.84c-6.33,0-8.22,1.21-10.64,10.65l-4.58,17.51c-1.49,6.06.4,8.49,5.25,8.49h12.94a4.94,4.94,0,0,0,5.12-3.37l.94-3.1"/><path d="M119.63,383.74H116.8l6.46-24.8h3c5.79,0,5.79,1.89,3.1,12.54s-4.31,12.26-9.7,12.26m8.48-30.59H114.78l-9.17,35.44c0,.54.27,1.21,1,1.21H118c15,0,17.25-2.7,21.29-18.32C142.94,357.73,140.78,353.15,128.11,353.15Z"/><path d="M311,353.15H297.88l-9,35.44c-.27.54,0,1.21.54,1.21h8.89l7.82-30.86h3.37c4.17,0,4.85,1.62,3.63,5.8L307,388.59c-.27.54.27,1.21.94,1.21h8.36l6.73-25.06c2.16-8.49-1.48-11.59-12.12-11.59"/><path d="M235.23,353.15l-1.49,6.2h9.71a11.92,11.92,0,0,0-3.1,4.45L234,388.59c0,.54.27,1.21,1,1.21h9.43l7.81-30.45h4.85c2.7,0,4.18-1.35,5.12-3.77l.95-2.43"/><path d="M99.28,389.8l9-35.44c0-.54-.27-1.21-.81-1.21H98.34L89,388.59c0,.54.27,1.21.81,1.21"/><path d="M270.13,384.28c-4.32,0-4.85-1.49-1.89-13.07,2.42-9.44,4.85-12.8,8.49-12.8,4.31,0,4.58,2.42,1.88,12.8-2.42,10.37-5.25,13.07-8.48,13.07m8.08-31.67c-11.18,0-15.76,2.16-20.21,18.87-3.64,14.68-.67,18.86,10.51,18.86,11.59,0,15.76-2.43,20.07-18.86C291.55,359.62,291,352.61,278.21,352.61Z"/><path class="cls-6" d="M16.28,371.74l5.79-20.07a5.49,5.49,0,0,1,5.12-4H44.44c.27,0,.67.4.27.67A177.24,177.24,0,0,0,17,372.15c-.4.27-.67,0-.67-.41"/><path d="M30.29,384l5.39-19.81a1,1,0,0,0-.27-.67,206.41,206.41,0,0,0-24.52,25.6c-.27.4-.27.67,0,.67H35.41c10.24,0,15.77-3.1,17.79-11.05,1.62-6.06-1.48-10.37-6.6-11.59h0c4.17-.8,8.75-2.69,10.24-9.16,1.88-7-3.64-10.64-9.7-10.37l-9.3,33c-.27,1.88-2.43,3.37-4.31,3.37"/><path d="M83,375.11c-.41-1.21-.68-1.75-1-2.42-.26-.27-.26-.27,0-.27,3.91-1.21,6.61-4,7.82-8.62,1.62-5.8-2-10.65-11.45-10.65H64.52l-9.16,35.44A.79.79,0,0,0,56,389.8h8.76L72.6,359h3.64c3.64,0,4.85,2.15,3.91,4.85A7,7,0,0,1,73,369.59H71.79l3.51,17.78c.67,1.76,1.21,2.43,3.37,2.43h8"/><path d="M202,377.27c-3.64,9.16,1.21,13.07,11.18,13.07,8.76,0,13.88-2,16-10.38.67-3,.27-6.06-1.49-7.81-3.36-3.77-10-4.31-12.12-6.47a4,4,0,0,1-.95-3.91,4.78,4.78,0,0,1,4.86-3.77c4,0,4.31,2.56,3.36,5.53h8.49c2.16-6.34-.67-11.32-10.91-11.32-8.49,0-13.34,3.77-14.82,10.1a8,8,0,0,0,.94,6.47c2,4.18,8.49,4.85,12.13,7a3.53,3.53,0,0,1,.81,4.17c-.54,3.1-2,4.58-5.12,4.58s-4.86-1.75-3-7.27"/><path class="cls-7" d="M275.46,45.2h1.46l2.77-14.56-4.23,7.24-4.24,7.32Zm0-21.49h16.79L290.32,56.6H274.76l.7-3.62.23-1.31h-8.4l-2.54,4.93H249L267.44,30H278.3l-2.85-2.92-3.23-3.39Zm52.45-.23h3.54l-2.08,6.85h-9.93s-5-.54-6.32,3.39L309.19,44s-2.23,4.7,2.62,4.7l11.87.07-2.47,7.78H298c-8.55-.77-4.85-10.63-4.85-10.63l6-15.71c2.23-7.86,12.79-6.7,12.79-6.7Zm20.34,25.11A4.14,4.14,0,0,0,349.48,47l4.7-12.71s1.31-3.08-1.47-3.46l-3.77.15-.69,1.85-6.32,16.41h3.85a3.51,3.51,0,0,0,2.47-.62Zm20-22.49c2.62,2.77,1.24,6.54,1.24,6.54L368.27,36,363.5,49.2c-2.54,8-11.33,7.48-11.33,7.48h-27.8l3.54-9.94,5.7-15.87h13.1l-10.25-7.24h25.73c3.08.31,5,1.31,6.08,2.47Zm17.87,14.32H390s1.55-3.93-2.92-4.08a7,7,0,0,0-.93.08,4.38,4.38,0,0,0-4,4Zm14.48-5.93a6,6,0,0,1,1.78,3.39,20.23,20.23,0,0,1-1,6.93H380.29s-2,6.09,1.69,6.24c0,0,2.7.31,4.16-1.46a3.79,3.79,0,0,0,.85-1.7h13.1s-2.24,8-13.95,9c-.69.07-1.54.07-2.31.07,0,0-10.09,1-14.71-2.69a4.08,4.08,0,0,1-.85-.77c-.92-1.16-2.39-3.85-1-8.94a24.72,24.72,0,0,1,1-2.93c1.16-2.69,3.16-6.46,6.32-8.47,0,0,3.85-2.85,11.55-2.85a21,21,0,0,1,2.24.08s8.32.31,12.24,4.08Zm20.26-12.17H424l-3.16,9.17-8.85,25H398.78l1.84-5.08L411.1,22.32Zm31.58,13.79a6.17,6.17,0,0,1,.54,1.77,14.53,14.53,0,0,1-.07,3.16h-13c1.85-5.16-1.77-5-1.77-5a4.11,4.11,0,0,0-4,1.93c-3.23,6.16-3.46,9.47-3.46,9.47-.24,1.7-.08,2.93,2,3.55,0,0,4.39.54,5.16-3.08h13.09s-2.15,9-16.09,9.09c0,0-9.09.84-13.95-2.09a7.63,7.63,0,0,1-.84-.61s-3.86-2.39-1.85-9.71a25.13,25.13,0,0,1,2.69-6.31,14,14,0,0,1,4.62-5.09s4.63-3.39,13.79-2.77c0,0,10.32.31,13.17,5.7Zm17,27.5-17,.62L420.88,65.3l-20.25.7-14.49.54-17.87.61-20,.7-20.34.77-52.45,1.77-37.52,1.38,6.32-8.47H479.12l-9.71.31Zm0-33a33.05,33.05,0,0,1,3.93-.15s12.17-.46,13.33,7c0,0,.53,4.7-2.32,11.09-1,2.16-4.31,7.86-14.94,8.48H469s-9.94.92-14.79-2.7a5,5,0,0,1-1.7-2.31c-.69-1.47-1.07-3.85-.15-7.4l.15-.3c.47-1.62,2.62-8.25,7.24-11.1a25.57,25.57,0,0,1,9.71-2.62Zm0,19.72a4.86,4.86,0,0,0,2-2.39,28.61,28.61,0,0,0,2.78-9.24,2.18,2.18,0,0,0-2-2.62,4.11,4.11,0,0,0-2.77.7A3,3,0,0,0,468.26,38c-3.32,6.16-3.55,9.47-3.55,9.47-.15,1.31-.69,3.31,2.47,3.47a4.11,4.11,0,0,0,2.23-.62Z"/></svg>