<svg id="Layer_1" data-name="Layer 1" xmlns="http://www.w3.org/2000/svg" viewBox="0 0 400 312.3"><defs><style>.cls-1,.cls-5{fill:#2d3748;}.cls-1,.cls-2,.cls-3{fill-rule:evenodd;}.cls-2,.cls-4{fill:#3881c3;}.cls-3{fill:#a0aec0;}</style></defs><title>rrp-logo</title><polygon class="cls-1" points="89.55 145.14 112.9 145.14 106.42 168.49 83.08 168.49 89.55 145.14"/><polygon class="cls-2" points="53.4 168.49 83.08 168.49 74.84 198.16 45.16 198.16 53.4 168.49"/><polygon class="cls-3" points="74.84 198.31 104.52 198.31 96.29 227.99 66.61 227.99 74.84 198.31"/><polygon class="cls-3" points="25.69 130.15 64.03 130.15 53.4 168.49 15.06 168.49 25.69 130.15"/><path class="cls-1" d="M151.61,94a5,5,0,1,1-5,5,5,5,0,0,1,5-5m.25-6.78a12,12,0,0,1,5.42,1.28l51.53-47.58-47,51.52A12,12,0,0,1,146,109.69l-8.25,8.94h-7.61l1.59-6.56,9-8.33a11.82,11.82,0,0,1-.9-4.54A12,12,0,0,1,151.86,87.18Z"/><path class="cls-2" d="M204.67,59.42A124.22,124.22,0,0,1,267.81,121h.68a133.81,133.81,0,0,0-57.33-68Z"/><path class="cls-2" d="M145,49.56q5.07-.42,10.21-.42A124.06,124.06,0,0,1,185,52.77l-1.54,1.4,1.76,1.93L188,53.55l.07,0,8.66-8a133.5,133.5,0,0,0-53.5-11.15c-2.32,0-4.62.06-6.92.18Z"/><path class="cls-2" d="M77,76.84a124.34,124.34,0,0,1,57.72-26l2.76,4.8,2.26-1.31-2.26-3.92-3.58-6.21L133,42.74l-4.35-7.53A133.84,133.84,0,0,0,57.39,65.55Z"/><path class="cls-2" d="M43.76,118.36A124,124,0,0,1,69.4,83.49l6.8,3.93,1.31-2.26L65.92,78.47l-14-8.09A133.66,133.66,0,0,0,18,121H50.39v-2.61Z"/><path class="cls-3" d="M193.81,64.36a106,106,0,0,1,69.08,53.35,113.89,113.89,0,0,0-66.36-56.33ZM75.67,117.71a106,106,0,0,1,93.61-56.23c3.27,0,6.51.16,9.72.45l4.29-4a113.93,113.93,0,0,0-123,59.74Z"/><path class="cls-2" d="M328.82,225.72h29.42l-9.95-38.51,5.31,0c8.07,0,16.39-6.81,18.55-15.15q3.53-13.57,7-27.14c2.17-8.36-2.65-15.16-10.72-15.16H284.78c-8.52,0-17.34,7.19-19.62,16l-2,7.69h84.58l-3.44,13.28c-23.37,0-46.7.25-70.07.34-8.06,0-16.37,6.83-18.53,15.17l-11.28,43.51h29.23q5-19.15,9.92-38.29c11.69,0,23.37-.06,35-.1Z"/><path class="cls-2" d="M192.16,225.72h29.42l-10-38.51,5.32,0c8.07,0,16.39-6.81,18.55-15.15q3.51-13.57,7-27.14c2.16-8.36-2.65-15.16-10.73-15.16H148.11c-8.52,0-17.33,7.19-19.62,16l-2,7.69h84.59l-3.44,13.28c-23.37,0-46.7.25-70.07.34-8.06,0-16.38,6.83-18.54,15.17q-5.62,21.75-11.27,43.51H137q5-19.15,9.92-38.29c11.69,0,23.36-.06,35-.1Z"/><path class="cls-4" d="M35.86,253.93l4.22,7.35H31.25l-3.57-6.34H25.59l-1.26,6.34h-8.5l5-25.22H32.19c6.66,0,10.48,3.06,10.48,8.29A9.88,9.88,0,0,1,35.86,253.93Zm-5-11.31H28l-1.19,5.91h3.5c2.34,0,3.71-1.23,3.71-3.35C34.06,243.38,32.84,242.62,30.89,242.62Z"/><path class="cls-4" d="M62.71,253.93l4.21,7.35H58.09l-3.56-6.34H52.44l-1.26,6.34H42.67l5-25.22H59c6.67,0,10.49,3.06,10.49,8.29A9.9,9.9,0,0,1,62.71,253.93Zm-5-11.31H54.89l-1.19,5.91h3.49c2.35,0,3.71-1.23,3.71-3.35C60.9,243.38,59.68,242.62,57.73,242.62Z"/><path class="cls-5" d="M107.17,244.42c0,6.38-5,10.67-12.76,10.67H90.05l-1.22,6.19H80.32l5.05-25.22h11.2C103.35,236.06,107.17,239.16,107.17,244.42Zm-8.61.76c0-1.8-1.23-2.56-3.17-2.56H92.54l-1.19,5.91h3.49C97.19,248.53,98.56,247.3,98.56,245.18Z"/><path class="cls-5" d="M118.84,242.47l-.57,3h10.66l-1.22,6.12H117l-.64,3.32H129l-1.29,6.41h-21l5-25.22h20.5L131,242.47Z"/><path class="cls-5" d="M151,253.93l4.21,7.35h-8.82l-3.57-6.34h-2.09l-1.26,6.34H131L136,236.06h11.31c6.67,0,10.49,3.06,10.49,8.29A9.88,9.88,0,0,1,151,253.93Zm-5-11.31H143.2L142,248.53h3.49c2.35,0,3.72-1.23,3.72-3.35C149.22,243.38,148,242.62,146.05,242.62Z"/><path class="cls-5" d="M170.08,242.47l-.87,4.33h10.53l-1.3,6.41H168l-1.62,8.07h-8.5l5-25.22h20.5l-1.29,6.41Z"/><path class="cls-5" d="M182.26,250.58c0-8.9,6.63-15.1,15.89-15.1,7.85,0,12.79,4.65,12.79,11.28,0,8.9-6.63,15.1-15.89,15.1C187.19,261.86,182.26,257.21,182.26,250.58Zm20.1-3.31a4.58,4.58,0,0,0-4.93-4.9c-4.18,0-6.6,3.56-6.6,7.71a4.59,4.59,0,0,0,4.94,4.9C200,255,202.36,251.41,202.36,247.27Z"/><path class="cls-5" d="M231.44,253.93l4.22,7.35h-8.83l-3.57-6.34h-2.09l-1.26,6.34h-8.5l5-25.22h11.32c6.66,0,10.48,3.06,10.48,8.29A9.88,9.88,0,0,1,231.44,253.93Zm-5-11.31h-2.85l-1.19,5.91h3.5c2.34,0,3.71-1.23,3.71-3.35C229.64,243.38,228.41,242.62,226.47,242.62Z"/><path class="cls-5" d="M273.49,236.06l-5,25.22h-7.75L263,249.79,255.91,259h-3.75l-3.89-9.08L246,261.28h-7.75l5-25.22h6.92l5.48,13.4,10.56-13.4Z"/><path class="cls-5" d="M291,256.89h-9.62l-2.52,4.39h-9L286,236.06h8.36l6,25.22h-8.47Zm-1.19-6.13-1.22-6.45-3.71,6.45Z"/><path class="cls-5" d="M331.57,236.06l-5,25.22h-7l-7.25-11.74L310,261.28h-8.29l5-25.22h7l7.24,11.75,2.35-11.75Z"/><path class="cls-5" d="M332,250.58c0-8.86,6.59-15.1,15.93-15.1,4.83,0,8.79,1.81,10.63,5.05l-6.13,4.79a5.51,5.51,0,0,0-5-2.95c-4,0-6.82,3.17-6.82,7.67,0,3,2.06,4.94,5.19,4.94a7.11,7.11,0,0,0,5.63-2.92l5,4.79c-3.06,3.75-6.81,5-11.45,5C337.16,261.86,332,257.28,332,250.58Z"/><path class="cls-5" d="M369.55,242.47l-.58,3h10.67l-1.23,6.12h-10.7l-.65,3.32h12.65l-1.3,6.41h-21l5.05-25.22H383l-1.3,6.41Z"/><polygon class="cls-1" points="21.32 198.47 44.66 198.47 38.19 221.81 14.84 221.81 21.32 198.47"/></svg>